<svg width="184" height="239" viewBox="0 0 184 239" fill="none" xmlns="http://www.w3.org/2000/svg">
<path d="M76.8435 29.2057L74.7226 13.645C74.4107 11.3566 74.182 6.25993 80.132 5.44898C84.7087 4.8252 86.5229 9.23964 86.8971 11.9856L87.3338 15.1893" stroke="url(#paint0_linear)" stroke-width="3" stroke-linecap="round" stroke-linejoin="round"/>
<g clip-path="url(#clip0)">
<path d="M76.9356 28.5717C72.9327 29.1926 69.2044 30.9898 66.222 33.736C63.2396 36.4822 61.1371 40.0541 60.1803 43.9999C59.2236 47.9458 59.4556 52.0885 60.8469 55.9042C62.2383 59.7199 64.7266 63.0371 67.9971 65.4365C71.2677 67.8359 75.1736 69.2097 79.221 69.3841C83.2684 69.5585 87.2755 68.5258 90.7356 66.4165C94.1957 64.3071 96.9534 61.216 98.66 57.5338C100.367 53.8517 100.946 49.7439 100.323 45.73C99.9107 43.0644 98.9783 40.506 97.5794 38.2009C96.1806 35.8959 94.3427 33.8893 92.1708 32.2959C89.9989 30.7026 87.5356 29.5535 84.9215 28.9145C82.3074 28.2755 79.5937 28.159 76.9356 28.5717ZM82.545 64.7665C79.4084 65.2521 76.1979 64.7939 73.3196 63.45C70.4413 62.1061 68.0244 59.9369 66.3748 57.2167C64.7251 54.4964 63.9168 51.3474 64.052 48.168C64.1872 44.9886 65.2599 41.9216 67.1344 39.355C69.0089 36.7883 71.6009 34.8374 74.5827 33.7488C77.5645 32.6603 80.802 32.4832 83.8857 33.2398C86.9694 33.9964 89.7608 35.6528 91.9068 37.9995C94.0528 40.3461 95.4569 43.2776 95.9416 46.4231C96.5867 50.6379 95.5387 54.9357 93.0274 58.3744C90.5161 61.813 86.7464 64.1117 82.545 64.7665Z" fill="#B4CEDA"/>
<path d="M83.6435 71.3516L74.9038 72.7061L76.1832 80.9615L84.9229 79.6071L83.6435 71.3516Z" fill="#B13838"/>
<path d="M92.3818 69.9903L83.6421 71.3447L84.9215 79.6002L93.6612 78.2457L92.3818 69.9903Z" fill="#B13838"/>
<path d="M148.09 188.634C169.191 159.634 162.878 118.896 133.989 97.6438C105.099 76.3911 64.5746 82.6715 43.4736 111.672C22.3726 140.672 28.686 181.409 57.575 202.662C86.4641 223.915 126.989 217.634 148.09 188.634Z" fill="#E8F3F8"/>
<path d="M105.782 214.448C141.131 208.97 165.322 175.723 159.815 140.189C154.308 104.655 121.188 80.2902 85.8399 85.7684C50.4916 91.2466 26.3005 124.493 31.8074 160.027C37.3144 195.561 70.4341 219.927 105.782 214.448Z" fill="#576770"/>
<path d="M33.7 168.491C35.7775 175.579 39.0425 182.261 43.3544 188.249L116.076 88.2927C109.095 85.9728 101.773 84.8663 94.4258 85.0208L33.7 168.491Z" fill="#273234"/>
<path d="M57.6334 202.65C60.243 204.563 62.9886 206.282 65.8481 207.792L141.42 103.939C136.8 99.3408 131.524 95.4598 125.767 92.4243L50.1927 196.278C52.5104 198.586 54.9977 200.716 57.6334 202.65Z" fill="#273234"/>
<path d="M97.2001 215.194L157.927 131.734C155.85 124.645 152.584 117.963 148.27 111.976L75.5503 211.922C82.531 214.242 89.8528 215.349 97.2001 215.194Z" fill="#273234"/>
<path opacity="0.11" d="M111.987 143.542L103.309 151.104C103.325 151.207 103.34 151.308 103.356 151.411C103.476 152.635 103.134 153.858 102.4 154.84C102.321 154.95 102.237 155.055 102.147 155.156C101.937 155.424 101.698 155.667 101.434 155.881C101.377 155.928 101.319 155.973 101.258 156.014L101.787 168.35L98.2264 168.693L96.545 156.594C96.5139 156.586 96.4838 156.575 96.4548 156.561L62.0371 181.578C61.9466 181.645 61.8337 181.675 61.7219 181.66C61.6102 181.646 61.5082 181.588 61.4375 181.5C61.3674 181.412 61.3341 181.301 61.3446 181.189C61.3552 181.077 61.4088 180.973 61.494 180.901L93.492 152.871C93.3705 152.188 93.3936 151.488 93.5597 150.815C93.7258 150.142 94.0312 149.512 94.4559 148.966L94.5499 148.849C94.8637 148.437 95.2417 148.079 95.6693 147.788L92.2378 92.773C92.2345 92.6626 92.2731 92.5551 92.3457 92.4724C92.4184 92.3896 92.5197 92.3377 92.629 92.3273C92.7384 92.3169 92.8478 92.3486 92.9348 92.4161C93.0219 92.4836 93.0802 92.5819 93.098 92.6909L100.348 147.34C100.354 147.341 100.36 147.34 100.365 147.337L109.762 140.715L111.987 143.542Z" fill="black"/>
<path d="M88.1465 90.7676L85.0022 91.2549L86.3266 99.8004L89.4708 99.3131L88.1465 90.7676Z" fill="white"/>
<path d="M59.6288 102.515L57.1521 104.52L62.5542 111.258L65.0309 109.254L59.6288 102.515Z" fill="white"/>
<path d="M40.8011 127.032L39.6553 130.014L47.6816 133.14L48.8275 130.158L40.8011 127.032Z" fill="white"/>
<path d="M36.7079 157.738L37.2 160.898L45.6999 159.575L45.2079 156.415L36.7079 157.738Z" fill="white"/>
<path d="M48.4401 186.413L50.4382 188.905L57.1343 183.487L55.1362 180.995L48.4401 186.413Z" fill="white"/>
<path d="M72.8642 205.374L75.833 206.53L78.9309 198.469L75.9621 197.312L72.8642 205.374Z" fill="white"/>
<path d="M103.426 209.532L106.57 209.043L105.24 200.498L102.096 200.988L103.426 209.532Z" fill="white"/>
<path d="M131.937 197.781L134.414 195.777L129.012 189.039L126.535 191.043L131.937 197.781Z" fill="white"/>
<path d="M150.759 173.269L151.905 170.287L143.878 167.161L142.732 170.143L150.759 173.269Z" fill="white"/>
<path d="M154.851 142.57L154.359 139.409L145.859 140.733L146.351 143.893L154.851 142.57Z" fill="white"/>
<path d="M143.119 113.894L141.121 111.401L134.425 116.82L136.423 119.312L143.119 113.894Z" fill="white"/>
<path d="M118.698 94.9356L115.729 93.7793L112.632 101.841L115.6 102.997L118.698 94.9356Z" fill="white"/>
<path d="M85.306 82.8907C48.3513 88.6451 23.0853 123.426 28.8692 160.571C34.6531 197.717 69.305 223.171 106.256 217.413C143.207 211.656 168.476 176.878 162.683 139.734C156.889 102.59 122.26 77.1329 85.306 82.8907ZM105.701 213.856C70.7034 219.308 37.8877 195.205 32.4082 160.023C26.9287 124.841 50.8629 91.8989 85.8772 86.4452C120.892 80.9914 153.691 105.097 159.17 140.279C164.65 175.46 140.719 208.402 105.701 213.856Z" fill="#263E53"/>
<path d="M83.9287 74.0495C42.1094 80.5647 13.5331 119.911 20.0773 161.941C26.6215 203.97 65.8227 232.765 107.633 226.255C149.442 219.745 178.028 180.393 171.484 138.364C164.94 96.3339 125.739 67.5392 83.9287 74.0495ZM106.254 217.404C69.3048 223.171 34.6513 197.707 28.869 160.571C23.0867 123.436 48.3511 88.6452 85.3057 82.8908C122.26 77.1364 156.925 102.581 162.682 139.734C168.44 176.887 143.21 211.659 106.256 217.414L106.254 217.404Z" fill="#E2423E"/>
<path d="M90.0763 90.4446C89.9642 90.4544 89.8604 90.5082 89.7873 90.5942C89.7142 90.6802 89.6778 90.7917 89.6857 90.9046L93.1166 145.916C92.3874 146.413 91.8046 147.098 91.4291 147.898C91.0537 148.699 90.8993 149.587 90.9822 150.469C91.0651 151.352 91.3823 152.196 91.9004 152.913C92.4186 153.631 93.1189 154.195 93.9279 154.548L95.6335 166.825L99.1941 166.481L98.6747 154.079C99.4018 153.579 99.9813 152.891 100.352 152.087C100.723 151.284 100.872 150.395 100.784 149.513C100.695 148.631 100.372 147.789 99.848 147.075C99.3243 146.361 98.6193 145.802 97.8071 145.456L90.5609 90.81C90.5443 90.6972 90.4841 90.5955 90.3933 90.5271C90.3026 90.4587 90.1886 90.429 90.0763 90.4446Z" fill="white"/>
<path d="M99.0412 150.304C99.206 148.544 97.9197 146.98 96.168 146.812C94.4164 146.643 92.8629 147.934 92.6981 149.694C92.5333 151.454 93.8196 153.017 95.5712 153.186C97.3229 153.354 98.8764 152.064 99.0412 150.304Z" fill="#40A076"/>
<path d="M58.8792 179.612C58.9488 179.701 59.05 179.759 59.1614 179.774C59.2727 179.789 59.3856 179.76 59.476 179.693L93.8638 154.681C94.6762 155.026 95.5655 155.145 96.4388 155.027C97.3121 154.909 98.1374 154.557 98.8284 154.008C99.5195 153.459 100.051 152.734 100.367 151.907C100.683 151.081 100.773 150.184 100.626 149.31L109.438 141.652L107.208 138.836L97.662 145.57C96.8473 145.229 95.9566 145.114 95.0833 145.238C94.2099 145.361 93.3861 145.719 92.6982 146.272C92.0102 146.826 91.4835 147.556 91.1731 148.385C90.8628 149.215 90.7802 150.113 90.9342 150.986L58.9362 179.016C58.8519 179.088 58.7988 179.191 58.7882 179.302C58.7775 179.413 58.8101 179.524 58.8792 179.612Z" fill="white"/>
<path d="M93.9702 147.825C94.4231 147.464 94.9727 147.246 95.5495 147.198C96.1263 147.151 96.7044 147.276 97.2108 147.559C97.7171 147.842 98.1289 148.269 98.3942 148.786C98.6594 149.304 98.7662 149.888 98.701 150.466C98.6359 151.044 98.4017 151.589 98.028 152.033C97.6544 152.477 97.158 152.799 96.6018 152.959C96.0456 153.119 95.4544 153.109 94.903 152.931C94.3515 152.754 93.8647 152.416 93.5038 151.961C93.0204 151.349 92.798 150.57 92.8854 149.795C92.9729 149.019 93.363 148.311 93.9702 147.825Z" fill="#263E53"/>
<path d="M70.6632 56.2373C68.8522 56.5179 67.5805 57.9988 67.8203 59.5458L69.5472 70.6887C69.7869 72.2358 71.4534 73.2579 73.2643 72.9772L74.8962 72.7243L83.6358 71.3699L82.4799 63.9113L81.0414 54.6289L70.6632 56.2373Z" fill="#E2423E"/>
<path d="M91.4025 52.9962L81.031 54.6035L82.4696 63.8859L83.6255 71.3445L92.3618 69.9906L93.997 69.7372C95.808 69.4565 97.0797 67.9757 96.8366 66.4291L95.1097 55.2862C94.8766 53.7381 93.2135 52.7155 91.4025 52.9962Z" fill="#C04343"/>
<path opacity="0.11" d="M146.968 110.308C139.799 103.661 131.231 98.7266 121.903 95.8739C112.575 93.0212 102.729 92.3238 93.102 93.8339C57.7555 99.3357 33.5894 132.601 39.1232 168.132C40.7992 179.011 45.2051 189.286 51.9251 197.987C41.1359 188.026 34.036 174.677 31.794 160.135C26.2635 124.603 50.4349 91.3507 85.7756 85.8327C97.2122 84.0491 108.92 85.3787 119.682 89.6829C130.444 93.9872 139.866 101.109 146.968 110.308Z" fill="black"/>
<g opacity="0.6">
<path opacity="0.2" d="M57.6948 201.98C27.7473 178.173 23.6838 139.345 42.6 113.285C61.5163 87.2248 97.3927 75.0648 133.365 97.7496C140.279 102.727 146.146 109.035 150.628 116.307C155.109 123.58 158.116 131.672 159.473 140.115C160.83 148.559 160.511 157.186 158.534 165.497C156.557 173.808 152.962 181.637 147.957 188.532C142.951 195.427 136.635 201.249 129.374 205.663C122.113 210.076 114.052 212.993 105.656 214.244C97.2612 215.495 88.6993 215.055 80.4665 212.95C72.2337 210.844 64.4937 207.116 57.6948 201.98Z" fill="url(#paint1_linear)"/>
</g>
</g>
<defs>
<linearGradient id="paint0_linear" x1="79.6244" y1="7.56425" x2="82.7559" y2="33.0615" gradientUnits="userSpaceOnUse">
<stop stop-color="#0F8272"/>
<stop offset="0.421875" stop-color="#788699"/>
<stop offset="1" stop-color="#788699"/>
</linearGradient>
<linearGradient id="paint1_linear" x1="74.0658" y1="134.039" x2="147.773" y2="187.54" gradientUnits="userSpaceOnUse">
<stop stop-color="white"/>
<stop offset="1" stop-color="white"/>
</linearGradient>
<clipPath id="clip0">
<rect width="153.231" height="200.052" fill="white" transform="translate(1.22656 40.3047) rotate(-8.80946)"/>
</clipPath>
</defs>
</svg>
