<svg width="172" height="210" viewBox="0 0 172 210" fill="none" xmlns="http://www.w3.org/2000/svg">
<path d="M85.94 28.2426L85.5402 11.2473C85.4814 8.74799 85.8516 3.23776 92.3501 3.08488C97.3488 2.96729 98.7665 7.93532 98.8371 10.9345L98.9194 14.4335" stroke="url(#paint0_linear)" stroke-width="3" stroke-linecap="round" stroke-linejoin="round"/>
<path d="M80.4249 37.9339C80.366 35.4346 80.7538 30.6137 86.2511 30.4844C90.751 30.3785 91.851 34.6643 91.9216 37.6634" stroke="#D4EAEA" stroke-width="4" stroke-linecap="round" stroke-linejoin="round"/>
<g clip-path="url(#clip0)">
<path opacity="0.5" d="M168.243 141.932C174.108 144.727 130.534 207.936 92.0173 207.936C53.5002 207.936 3.50558 148.79 3.6257 145.415C3.74583 142.041 48.1054 151.717 84.5804 146.038C118.161 140.807 159.31 137.673 168.243 141.932Z" fill="white"/>
<path d="M44.7746 152.23C41.1882 151.684 37.6821 150.701 34.3345 149.303C32.425 148.584 30.7483 147.357 29.4858 145.754C28.5927 144.344 28.1005 142.718 28.062 141.05C28.0235 139.382 28.4402 137.735 29.2673 136.286C29.6966 135.56 30.3063 134.957 31.0372 134.536C31.7682 134.115 32.5956 133.89 33.439 133.883C37.0773 133.525 40.6573 132.718 44.0976 131.481C50.4752 129.515 56.7437 127.222 62.9029 124.644C62.9997 124.616 63.0982 124.594 63.1978 124.579C63.2073 125.423 63.3933 126.257 63.7438 127.025C63.8967 127.396 64.2134 127.877 64.7048 127.8C65.1962 127.724 65.3928 127.156 65.3273 126.621C65.3387 126.523 65.3387 126.424 65.3273 126.326C65.2004 125.846 65.1598 125.346 65.2072 124.852C65.2072 124.59 65.2072 124.306 65.5675 124.306C66.3429 124.306 66.2446 123.858 66.0808 123.367C66.9583 122.897 67.8668 122.489 68.8 122.144C69.0403 122.209 69.0512 122.34 68.9311 122.537C68.6249 123.098 68.362 123.682 68.1448 124.284C67.1548 126.442 66.2799 128.651 65.5239 130.902C65.1198 130.432 64.6065 130.749 64.1915 130.825C59.6267 131.644 55.0619 132.507 50.4971 133.37L36.9882 135.947C36.3847 135.964 35.7906 136.102 35.2409 136.351L36.3985 136.526C37.0319 136.646 37.6544 136.81 38.2987 136.897C39.4531 137.198 40.6349 137.381 41.8261 137.443C45.4736 137.258 49.1211 136.996 52.7467 136.766L62.1385 136.144H62.7282C63.0483 136.16 63.3691 136.16 63.6892 136.144C64.3772 136.078 65.0761 136.308 65.7313 135.958L66.1791 135.827C67.8063 135.827 69.4553 135.663 71.0388 135.565C75.7128 135.303 80.3868 134.975 85.0609 134.669C86.1529 134.593 87.3651 134.604 88.4899 134.429C93.2404 133.719 97.98 132.933 102.687 132.245L116.556 130.061C120.924 129.373 125.292 128.663 129.661 127.964L133.767 127.298C133.775 127.229 133.775 127.159 133.767 127.091C131.867 124.653 130.296 121.976 129.093 119.129C129.078 119.071 129.051 119.016 129.014 118.968C128.977 118.92 128.929 118.881 128.876 118.854C128.822 118.826 128.763 118.809 128.702 118.806C128.642 118.803 128.581 118.813 128.525 118.835C127.913 118.966 127.302 119.053 126.69 119.173L111.937 121.936L99.9239 124.186L89.0687 126.239L78.6286 128.161C78.4284 127.014 78.3261 125.852 78.3228 124.688C78.1918 122.832 78.2027 120.953 78.2355 119.097C78.2195 117.992 78.3518 116.89 78.6286 115.82C78.6634 115.547 78.7621 115.285 78.9169 115.056C79.0717 114.827 79.2782 114.639 79.5196 114.505C79.761 114.371 80.0305 114.295 80.3064 114.285C80.5823 114.274 80.8568 114.329 81.1076 114.444C81.4789 114.532 81.6099 114.313 81.6973 114.051C81.7847 113.789 81.5772 113.636 81.3042 113.593C81.0312 113.549 80.6053 113.593 80.3978 113.2C80.8962 112.389 81.447 111.612 82.0468 110.873C82.3455 111.443 82.5415 112.06 82.6256 112.697C83.7176 116.257 84.908 119.741 86.1529 123.225C86.223 123.457 86.3684 123.659 86.5661 123.799C86.7639 123.94 87.0027 124.01 87.245 124C87.5063 124.033 87.7716 123.986 88.0056 123.865C88.2396 123.744 88.4314 123.555 88.5555 123.323C88.894 122.842 88.6319 122.46 88.348 122.122C87.8243 121.487 87.394 120.781 87.0703 120.025C85.8592 117.227 84.9867 114.294 84.4712 111.288C84.4712 111.125 84.2746 110.939 84.4712 110.819C84.6677 110.699 84.7988 110.819 84.9517 110.939C86.2185 111.507 87.4853 112.031 88.7084 112.719C91.3097 113.972 93.6398 115.723 95.5665 117.874C95.9047 118.305 96.3148 118.674 96.7787 118.966C97.4121 119.326 97.7834 119.097 97.7943 118.398C97.7659 117.751 97.5896 117.12 97.2792 116.552C96.9687 115.984 96.5323 115.495 96.0033 115.122C95.2094 114.483 94.3779 113.892 93.5134 113.352C91.9232 112.305 90.2547 111.381 88.5227 110.589C87.0703 109.88 85.6287 109.17 84.1545 108.515C83.7067 108.307 83.7941 108.132 84.0452 107.859C84.1917 107.728 84.353 107.615 84.5258 107.521C84.8315 107.313 84.7005 107.171 84.3947 107.106C85.6049 105.11 86.5519 102.967 87.2122 100.728C87.4668 99.7655 87.5041 98.7584 87.3214 97.7796C87.1486 97.0956 87.2221 96.3726 87.5289 95.7374C87.6315 95.4769 87.8001 95.2474 88.018 95.0716C88.236 94.8958 88.4959 94.7797 88.7722 94.7345C89.0486 94.6894 89.3319 94.7168 89.5945 94.8141C89.8571 94.9114 90.0898 95.0753 90.27 95.2897C94.496 99.7337 97.8322 104.946 100.099 110.644C100.562 111.812 101.3 112.85 102.251 113.672C103.202 114.493 104.336 115.073 105.559 115.362C108.889 116.495 112.52 116.363 115.759 114.99C116.56 114.639 117.216 114.022 117.615 113.243C119.101 110.256 120.886 107.427 122.945 104.802C123.64 103.844 124.579 103.09 125.664 102.617C125.988 102.464 126.346 102.398 126.703 102.426C127.061 102.454 127.404 102.575 127.7 102.777C127.996 102.98 128.234 103.256 128.39 103.578C128.546 103.901 128.615 104.258 128.591 104.616C128.644 105.213 128.562 105.814 128.35 106.374C127.356 108.558 127.695 110.797 128.252 113.014C129.244 117.131 130.952 121.042 133.297 124.568C134.171 125.867 135.394 126.828 136.366 128.03C137.308 129 137.942 130.227 138.19 131.557C138.194 131.629 138.214 131.7 138.25 131.762C138.286 131.825 138.337 131.878 138.397 131.917C140.843 133.763 141.946 136.384 142.678 139.234C143.117 140.646 143.258 142.133 143.093 143.603C142.9 144.709 142.465 145.759 141.819 146.678C141.173 147.598 140.333 148.363 139.358 148.921C137.286 150.213 134.95 151.023 132.522 151.291C132.397 151.31 132.273 151.335 132.151 151.367C127.411 151.684 122.672 152.022 117.954 152.219C111.729 152.481 105.504 152.645 99.2795 152.601C99.1157 152.405 98.9628 152.416 98.8209 152.601L95.9924 152.765C89.8987 152.972 83.8268 153.442 77.755 153.704C66.7399 154.328 55.6901 153.834 44.7746 152.23ZM110.921 151.433C113.214 151.433 115.508 151.433 117.79 151.192C118.882 151.094 120.083 151.083 121.219 151.029C124.342 150.898 127.466 150.614 130.589 150.45C133.529 150.38 136.4 149.549 138.921 148.036C139.931 147.503 140.772 146.7 141.35 145.717C141.929 144.733 142.222 143.608 142.198 142.467C142.08 140.552 141.633 138.671 140.876 136.908C140.248 135.177 139.105 133.679 137.6 132.616C137.405 132.481 137.181 132.393 136.945 132.361C136.71 132.329 136.47 132.353 136.246 132.431C132.97 133.523 129.694 134.331 126.417 135.15C123.141 135.969 119.788 136.602 116.458 137.258C112.821 137.968 109.152 138.535 105.472 139.027C103.593 139.278 101.715 139.573 99.8147 139.748C98.2858 139.89 96.7678 140.097 95.2389 140.283C93.4916 140.49 91.7552 140.785 89.997 140.894C87.8129 141.025 85.7052 141.309 83.5429 141.418C80.4742 141.582 77.4055 141.866 74.3259 142.019C72.8407 142.085 71.3446 142.019 69.8703 142.161C68.1776 142.336 66.4849 142.325 64.8031 142.401C60.9699 142.598 57.1586 142.576 53.3037 142.598C49.8418 142.598 46.3909 142.696 42.9291 142.598C39.7402 142.598 36.5514 142.478 33.3626 142.478C32.2705 142.478 32.1941 142.39 32.1832 141.287C32.1726 140.889 32.1945 140.491 32.2487 140.097C32.2964 139.872 32.2606 139.637 32.1481 139.436C32.0357 139.235 31.8541 139.082 31.6371 139.005C31.102 138.787 30.5451 138.535 30.0755 138.295C29.8025 138.153 29.6277 138.142 29.5513 138.514C29.2222 139.763 29.126 141.062 29.2673 142.347C29.726 145.262 31.6808 146.922 34.127 148.091C38.0701 149.826 42.2461 150.974 46.5219 151.498C49.9183 152.033 53.3583 152.328 56.7873 152.59C59.8342 152.809 62.892 152.94 65.9498 152.918C72.3492 152.918 78.7487 152.918 85.1373 152.263C87.8784 152.001 90.5976 151.946 93.4042 151.869C96.5712 151.782 99.7273 151.487 102.894 151.586C104.259 151.586 105.614 151.586 106.979 151.509C108.344 151.433 109.556 151.444 110.877 151.433H110.921Z" fill="#221F20"/>
<path d="M84.3947 107.127C84.7005 107.193 84.8316 107.335 84.5258 107.542C84.3677 107.642 84.2212 107.76 84.089 107.892C83.8378 108.165 83.7504 108.34 84.1982 108.547C85.6724 109.202 87.114 109.912 88.5664 110.622C90.2824 111.405 91.9362 112.318 93.5135 113.352C94.3544 113.88 95.1639 114.456 95.9378 115.078C96.4668 115.451 96.9032 115.94 97.2137 116.508C97.5241 117.076 97.7003 117.707 97.7288 118.354C97.7288 119.053 97.3466 119.282 96.7132 118.922C96.2493 118.63 95.8392 118.261 95.501 117.83C93.5743 115.679 91.2442 113.928 88.6429 112.675C87.4197 112.02 86.153 111.463 84.8862 110.895C84.7333 110.83 84.5695 110.666 84.4057 110.775C84.2418 110.884 84.4057 111.081 84.4057 111.245C84.9212 114.25 85.7937 117.183 87.0048 119.981C87.3285 120.737 87.7588 121.443 88.2825 122.078C88.5664 122.416 88.8285 122.799 88.49 123.279C88.3659 123.511 88.1741 123.701 87.9401 123.822C87.7061 123.942 87.4408 123.989 87.1795 123.956C86.9372 123.967 86.6984 123.896 86.5006 123.756C86.3029 123.615 86.1575 123.413 86.0874 123.181C84.8425 119.697 83.5975 116.213 82.5601 112.653C82.476 112.016 82.28 111.399 81.9813 110.83C82.0002 110.406 81.9746 109.981 81.9048 109.563C81.8634 109.291 81.8786 109.013 81.9495 108.748C82.0203 108.482 82.1452 108.233 82.3164 108.018C82.4876 107.803 82.7014 107.625 82.9444 107.496C83.1874 107.368 83.4543 107.29 83.7286 107.269C83.9579 107.237 84.1763 107.182 84.3947 107.127Z" fill="#0D0C0E"/>
<path d="M65.5237 130.902C66.2652 128.648 67.1255 126.435 68.101 124.273C68.3182 123.671 68.5811 123.087 68.8873 122.526C69.0074 122.329 68.9965 122.198 68.7562 122.132C69.1083 121.959 69.3899 121.67 69.5534 121.313C69.9376 120.548 70.387 119.817 70.8967 119.129C71.0156 118.949 71.178 118.802 71.3688 118.7C71.5596 118.599 71.7728 118.548 71.9887 118.551C72.7236 118.545 73.4566 118.626 74.1729 118.791C74.4753 118.906 74.8095 118.906 75.112 118.791C75.4069 119.228 75.8983 119.14 76.3133 119.249V119.533C75.7345 119.73 75.2212 119.959 75.5598 120.746C75.5988 121.09 75.5988 121.438 75.5598 121.783C75.5598 122.242 75.396 122.427 74.9701 122.569C74.5442 122.711 74.1073 122.657 73.878 122.067C73.7214 121.7 73.4485 121.394 73.1013 121.197C72.7541 120.999 72.3517 120.921 71.956 120.975C71.1478 120.975 71.0168 121.652 70.8639 122.274C70.8462 122.348 70.8167 122.418 70.7765 122.482C69.6443 124.948 68.7236 127.505 68.0245 130.126C67.7795 130.644 67.6033 131.191 67.5003 131.754C67.4308 131.976 67.3152 132.182 67.1609 132.357C67.0066 132.532 66.8171 132.672 66.6049 132.769C66.5319 132.817 66.4465 132.843 66.3591 132.843C66.2718 132.843 66.1864 132.817 66.1134 132.769C65.8657 132.533 65.6818 132.238 65.5787 131.911C65.4756 131.585 65.4567 131.237 65.5237 130.902Z" fill="#0E0C0E"/>
<path d="M76.3243 119.522V119.238C76.3898 118.823 76.9249 118.376 76.2588 118.004C76.5467 117.78 76.7412 117.457 76.8048 117.098C76.9431 116.395 77.1592 115.711 77.4491 115.056C77.5929 114.643 77.857 114.283 78.2074 114.023C78.5578 113.762 78.9784 113.612 79.4148 113.592C79.7643 113.592 80.1793 113.592 80.4086 113.221C80.6161 113.582 80.9765 113.571 81.315 113.614C81.6536 113.658 81.8392 113.713 81.7082 114.073C81.5771 114.433 81.4898 114.554 81.1185 114.466C80.8656 114.348 80.5883 114.292 80.3095 114.303C80.0307 114.313 79.7584 114.39 79.5151 114.527C79.2718 114.663 79.0646 114.856 78.9104 115.088C78.7562 115.321 78.6596 115.587 78.6286 115.864C78.3517 116.934 78.2195 118.035 78.2354 119.14C78.2354 120.997 78.2354 122.875 78.3228 124.732C78.3285 125.881 78.4308 127.028 78.6286 128.161C78.5783 128.199 78.5424 128.254 78.5266 128.315C78.5108 128.376 78.5159 128.441 78.5412 128.499C78.5024 128.667 78.4398 128.829 78.3555 128.98C78.017 129.482 77.7331 130.236 77.0778 130.159C76.4226 130.083 76.2915 129.242 76.1168 128.641C76.0294 125.616 76.1714 122.569 76.3243 119.522Z" fill="#0E0C0F"/>
<path d="M66.0371 123.4C66.2009 123.891 66.2992 124.328 65.5238 124.339C65.2071 124.339 65.1416 124.623 65.1634 124.885C65.116 125.379 65.1567 125.879 65.2836 126.359C65.295 126.457 65.295 126.556 65.2836 126.654C65.3491 127.189 65.2836 127.746 64.6611 127.833C64.0386 127.921 63.853 127.429 63.7001 127.058C63.3496 126.289 63.1636 125.456 63.1541 124.612C63.1848 124.384 63.2666 124.167 63.3935 123.976C63.5204 123.784 63.689 123.624 63.8866 123.508C64.0842 123.391 64.3057 123.321 64.5344 123.302C64.7632 123.283 64.9932 123.317 65.2071 123.4C65.4772 123.485 65.767 123.485 66.0371 123.4Z" fill="#0E0C0F"/>
<path d="M76.2478 118.004C76.914 118.376 76.3789 118.823 76.3133 119.238C75.8983 119.129 75.4069 119.238 75.1121 118.78C75.4539 118.471 75.836 118.21 76.2478 118.004Z" fill="#221F20"/>
<path d="M110.877 151.433C109.556 151.433 108.234 151.433 106.913 151.433C105.592 151.433 104.194 151.553 102.829 151.509C99.6617 151.411 96.5057 151.706 93.3387 151.793C90.5758 151.87 87.8129 151.924 85.0718 152.186C78.6832 152.809 72.2837 152.82 65.8842 152.842C62.8264 152.842 59.7687 152.732 56.7218 152.514C53.2927 152.263 49.8527 151.968 46.4564 151.422C42.1805 150.898 38.0045 149.75 34.0615 148.015C31.6153 146.846 29.6932 145.186 29.2018 142.27C29.0645 140.997 29.1607 139.709 29.4857 138.47C29.5622 138.099 29.7369 138.11 30.0099 138.252C30.5232 138.492 31.0365 138.743 31.5716 138.961C31.7885 139.038 31.9701 139.192 32.0826 139.393C32.1951 139.593 32.2308 139.828 32.1831 140.053C32.129 140.448 32.107 140.846 32.1176 141.244C32.1176 142.336 32.205 142.434 33.297 142.434C36.4859 142.434 39.6747 142.511 42.8635 142.554C46.3254 142.62 49.7763 142.554 53.2381 142.554C57.0713 142.554 60.8826 142.554 64.7375 142.358C66.4193 142.281 68.112 142.292 69.8047 142.117C71.279 141.965 72.7751 142.041 74.2603 141.976C77.34 141.823 80.4087 141.539 83.4774 141.375C85.6615 141.266 87.7801 140.982 89.9314 140.851C91.6897 140.741 93.4261 140.447 95.1734 140.239C96.7022 140.053 98.2202 139.846 99.7491 139.704C101.649 139.529 103.528 139.234 105.406 138.983C109.086 138.492 112.756 137.891 116.392 137.214C119.668 136.559 123.054 135.925 126.352 135.106C129.65 134.287 132.904 133.446 136.18 132.387C136.405 132.309 136.644 132.285 136.88 132.318C137.115 132.35 137.339 132.437 137.535 132.573C139.039 133.635 140.182 135.133 140.811 136.865C141.545 138.632 141.97 140.512 142.067 142.423C142.091 143.564 141.798 144.689 141.219 145.673C140.641 146.657 139.8 147.46 138.79 147.993C136.269 149.505 133.398 150.337 130.458 150.406C127.335 150.57 124.211 150.854 121.088 150.985C119.996 150.985 118.795 151.051 117.659 151.149C115.464 151.4 113.171 151.389 110.877 151.433ZM137.775 143.199C137.685 141.661 137.369 140.145 136.836 138.699C136.314 137.173 135.579 135.728 134.651 134.408C134.378 134.069 134.094 133.698 133.559 134.069C133.024 134.44 133.254 134.779 133.559 135.161C133.809 135.507 134.032 135.873 134.226 136.253C135.558 138.369 136.311 140.798 136.41 143.297C136.44 144.84 136.161 146.373 135.591 147.807C135.47 148.124 135.383 148.419 135.754 148.659C136.126 148.899 136.541 148.834 136.846 148.168C137.458 146.582 137.773 144.898 137.775 143.199ZM134.324 144.793C134.324 144.145 134.269 143.499 134.16 142.86C133.836 140.113 132.759 137.509 131.048 135.336C130.796 135.008 130.469 134.593 129.956 134.986C129.442 135.379 129.693 135.729 129.956 136.144C131.311 137.854 132.246 139.859 132.684 141.997C133.122 144.135 133.052 146.346 132.478 148.451C132.369 148.899 132.38 149.281 132.817 149.445C133.254 149.609 133.581 149.292 133.712 148.823C134.111 147.517 134.317 146.159 134.324 144.793ZM140.876 142.15C140.901 139.841 140.182 137.585 138.823 135.718C138.261 134.95 137.648 134.22 136.988 133.534C136.929 133.459 136.855 133.397 136.771 133.351C136.687 133.306 136.595 133.278 136.5 133.27C136.404 133.262 136.309 133.274 136.218 133.304C136.127 133.334 136.044 133.383 135.973 133.447C135.667 133.72 135.776 134.08 136.038 134.375C136.3 134.67 136.497 134.899 136.715 135.161C139.052 137.957 140.276 141.047 139.282 144.738C139.14 145.274 138.91 145.765 138.725 146.278C138.681 146.363 138.656 146.456 138.653 146.552C138.65 146.647 138.669 146.742 138.708 146.829C138.747 146.916 138.805 146.993 138.878 147.055C138.951 147.117 139.036 147.161 139.129 147.185C139.5 147.294 139.74 147.185 139.926 146.737C140.625 145.313 140.951 143.735 140.876 142.15ZM130.884 146.606C130.911 144.829 130.569 143.067 129.879 141.429C129.159 139.631 128.244 137.917 127.149 136.319C126.898 135.936 126.526 135.576 126.057 135.991C125.587 136.406 125.86 136.745 126.122 137.083C126.945 138.21 127.644 139.422 128.208 140.698C129.3 143.297 130.13 145.972 129.431 148.856C129.322 149.303 129.344 149.675 129.846 149.784C130.349 149.893 130.578 149.598 130.687 149.139C130.893 148.312 130.966 147.457 130.906 146.606H130.884ZM126.417 147.698C126.362 145.416 125.858 143.167 124.932 141.08C124.363 139.704 123.63 138.403 122.748 137.203C122.519 136.897 122.224 136.603 121.798 136.897C121.718 136.948 121.651 137.015 121.6 137.095C121.548 137.174 121.515 137.263 121.502 137.356C121.488 137.45 121.495 137.545 121.522 137.635C121.548 137.726 121.594 137.809 121.656 137.88C122.605 139.223 123.396 140.67 124.015 142.194C124.944 144.429 125.286 146.865 125.009 149.27C124.943 149.74 125.107 150.09 125.565 150.166C126.024 150.242 126.264 149.926 126.297 149.511C126.424 148.904 126.472 148.284 126.439 147.665L126.417 147.698ZM121.907 147.862C121.939 146.98 121.847 146.097 121.634 145.241C121.066 142.712 120.029 140.311 118.576 138.164C118.347 137.815 118.118 137.465 117.637 137.727C117.157 137.989 117.244 138.426 117.473 138.819C117.921 139.54 118.325 140.272 118.707 141.004C120.232 143.615 120.872 146.648 120.531 149.653C120.455 150.1 120.695 150.308 121.077 150.384C121.459 150.461 121.743 150.221 121.787 149.817C121.928 149.164 121.975 148.495 121.929 147.829L121.907 147.862ZM118.041 148.353C117.932 147.611 117.856 146.824 117.692 146.049C117.122 143.474 116.184 140.995 114.907 138.688C114.743 138.383 114.514 138.142 114.132 138.273C113.749 138.404 113.662 138.765 113.717 139.136C113.739 139.283 113.791 139.425 113.869 139.551C114.414 140.554 114.895 141.59 115.311 142.653C116.126 144.521 116.589 146.524 116.676 148.561C116.676 148.976 116.567 149.402 116.567 149.817C116.567 150.232 116.665 150.548 117.102 150.603C117.539 150.657 117.779 150.352 117.845 149.948C117.91 149.544 117.997 148.888 118.063 148.299L118.041 148.353ZM113.848 149.107C113.836 148.561 113.785 148.018 113.695 147.48C113.304 144.643 112.529 141.873 111.39 139.245C111.365 139.162 111.321 139.086 111.263 139.021C111.205 138.956 111.133 138.905 111.053 138.871C110.973 138.837 110.887 138.82 110.8 138.823C110.713 138.825 110.628 138.846 110.55 138.885C110.178 138.994 110.113 139.344 110.233 139.682C110.353 140.021 110.604 140.6 110.768 141.069C111.926 143.897 112.548 146.915 112.603 149.969C112.593 150.057 112.603 150.146 112.631 150.23C112.658 150.314 112.704 150.392 112.764 150.457C112.824 150.522 112.897 150.573 112.978 150.608C113.06 150.643 113.148 150.659 113.236 150.657C113.322 150.673 113.411 150.668 113.495 150.644C113.579 150.62 113.656 150.576 113.721 150.517C113.785 150.458 113.835 150.384 113.867 150.303C113.898 150.221 113.91 150.133 113.902 150.046C113.891 149.718 113.869 149.391 113.869 149.074L113.848 149.107ZM110.408 150.09C110.408 150.024 110.408 149.948 110.353 149.871C109.942 147.491 109.369 145.141 108.639 142.838C108.333 141.844 107.951 140.862 107.612 139.879C107.492 139.54 107.295 139.289 106.913 139.355C106.764 139.381 106.629 139.461 106.535 139.58C106.44 139.698 106.392 139.847 106.4 139.999C106.407 140.273 106.467 140.544 106.574 140.796C107.121 142.292 107.579 143.81 108.016 145.339C108.5 146.9 108.865 148.495 109.108 150.111C109.108 150.526 109.403 150.843 109.84 150.799C110.277 150.756 110.408 150.483 110.429 150.057L110.408 150.09ZM107.262 150.09C107.244 149.971 107.215 149.854 107.175 149.74C106.214 146.711 105.249 143.683 104.281 140.654C104.139 140.195 103.932 139.77 103.364 139.944C102.796 140.119 102.927 140.621 103.069 141.036C103.451 142.216 103.822 143.406 104.161 144.586C104.773 146.497 105.395 148.419 106.007 150.341C106.127 150.701 106.323 150.985 106.749 150.898C107.175 150.81 107.317 150.483 107.284 150.024L107.262 150.09ZM103.353 150.253C103.156 149.587 102.938 148.954 102.763 148.309C102.053 145.852 101.365 143.395 100.656 140.938C100.546 140.556 100.284 140.217 99.8474 140.337C99.4106 140.458 99.2904 140.84 99.4215 141.298C99.6181 141.965 99.8037 142.631 99.9893 143.297C100.677 145.689 101.354 148.069 102.032 150.461C102.141 150.81 102.348 151.061 102.73 150.974C102.917 150.947 103.086 150.851 103.205 150.706C103.324 150.56 103.385 150.376 103.375 150.188L103.353 150.253ZM99.6617 150.253C99.6617 150.057 99.5744 149.86 99.5198 149.675C98.7335 146.933 97.9363 144.214 97.1718 141.451C97.0299 140.927 96.8442 140.49 96.2436 140.676C95.6429 140.862 95.8177 141.386 95.9378 141.768C96.7678 144.651 97.6087 147.534 98.4168 150.428C98.5369 150.843 98.7881 151.051 99.1485 151.007C99.5089 150.963 99.6945 150.537 99.6836 150.144L99.6617 150.253ZM95.8832 150.341C95.8832 150.341 95.8832 150.166 95.8832 150.024C95.1952 147.305 94.4963 144.564 93.7974 141.877C93.6881 141.451 93.6335 140.894 93.0111 141.025C92.3886 141.156 92.5306 141.735 92.5524 142.194C92.5713 142.316 92.6005 142.437 92.6398 142.554L93.3278 145.219C93.7864 147.021 94.256 148.823 94.6928 150.679C94.7056 150.772 94.7386 150.86 94.7895 150.938C94.8404 151.016 94.9078 151.082 94.9871 151.131C95.0664 151.18 95.1555 151.211 95.2481 151.222C95.3407 151.232 95.4345 151.222 95.5228 151.193C95.8941 150.963 95.9269 150.668 95.905 150.232L95.8832 150.341ZM89.0469 142.139C89.0469 142.139 89.0469 142.216 89.0469 142.238C89.7349 145.077 90.4229 147.927 91.1218 150.767C91.2092 151.138 91.4822 151.411 91.8862 151.291C91.9797 151.275 92.0683 151.238 92.1457 151.184C92.2231 151.129 92.2872 151.057 92.3333 150.975C92.3794 150.892 92.4063 150.8 92.4121 150.705C92.4179 150.611 92.4024 150.516 92.3668 150.428C91.8644 148.43 91.3948 146.431 90.9143 144.422C90.7177 143.603 90.5212 142.784 90.3028 141.976C90.2902 141.887 90.2581 141.803 90.2089 141.729C90.1597 141.654 90.0945 141.592 90.0182 141.546C89.9419 141.5 89.8563 141.472 89.7676 141.463C89.679 141.454 89.5894 141.465 89.5055 141.495C89.3857 141.527 89.279 141.596 89.2006 141.692C89.1222 141.788 89.076 141.906 89.0687 142.03L89.0469 142.139ZM89.0469 150.57C89.0564 150.505 89.0564 150.439 89.0469 150.373L87.1467 142.205C87.1324 142.124 87.1019 142.046 87.057 141.978C87.0121 141.909 86.9537 141.849 86.8854 141.803C86.8171 141.758 86.7402 141.726 86.6594 141.71C86.5786 141.695 86.4954 141.696 86.415 141.713C86.0765 141.713 85.9345 142.041 85.9454 142.38C85.9291 142.579 85.9291 142.78 85.9454 142.98C86.557 145.601 87.1904 148.222 87.8019 150.854C87.9002 151.302 88.1514 151.542 88.5554 151.487C88.9595 151.433 89.0578 150.941 89.0141 150.483L89.0469 150.57ZM75.7346 143.352C75.7346 143.493 75.7346 143.646 75.7346 143.799C76.0622 146.322 76.4008 148.845 76.7284 151.367C76.7284 151.859 77.056 152.099 77.5365 152.012C78.017 151.924 78.0935 151.542 78.0389 151.094C77.7549 149.008 77.5038 146.923 77.2308 144.837C77.1434 144.149 77.0233 143.472 76.9031 142.795C76.8376 142.467 76.652 142.238 76.2807 142.303C76.128 142.314 75.985 142.382 75.8799 142.493C75.7747 142.604 75.7151 142.751 75.7128 142.904C75.7237 143.046 75.7346 143.199 75.7346 143.352ZM74.5006 151.182C74.5006 150.843 74.3695 150.526 74.3368 150.21C74.1548 147.887 73.9728 145.561 73.7908 143.231C73.7908 142.751 73.5614 142.456 73.0591 142.5C72.5567 142.543 72.4366 142.947 72.4803 143.373C72.6878 145.994 72.928 148.615 73.1464 151.236C73.1464 151.684 73.212 152.11 73.8235 152.077C74.4351 152.044 74.4569 151.575 74.5006 151.182ZM81.6755 150.81C81.6809 150.723 81.6809 150.635 81.6755 150.548C81.2823 147.938 80.9001 145.317 80.496 142.707C80.4948 142.611 80.4714 142.517 80.4277 142.431C80.3839 142.346 80.321 142.272 80.2438 142.214C80.1666 142.157 80.0772 142.119 79.9827 142.102C79.8881 142.085 79.791 142.091 79.6988 142.117C79.1965 142.227 79.1309 142.62 79.1965 143.046C79.5787 145.557 79.9609 148.08 80.3541 150.592C80.383 150.888 80.4528 151.178 80.5615 151.455C80.6228 151.581 80.7262 151.681 80.8538 151.739C80.9815 151.797 81.1253 151.808 81.2605 151.771C81.7519 151.575 81.7082 151.182 81.6755 150.81ZM85.4212 150.81C85.4212 150.526 85.312 150.253 85.2683 149.991C84.7878 147.512 84.2964 145.033 83.8268 142.554C83.7395 142.117 83.5101 141.844 83.0515 141.965C82.5928 142.085 82.4727 142.325 82.5819 142.805C82.844 144.061 83.0405 145.339 83.2917 146.606C83.5756 148.058 83.8814 149.511 84.1763 150.974C84.1825 151.062 84.2084 151.147 84.2519 151.224C84.2954 151.3 84.3555 151.366 84.4277 151.416C84.5 151.467 84.5826 151.5 84.6695 151.514C84.7564 151.528 84.8453 151.523 84.9298 151.498C85.3666 151.422 85.3994 151.105 85.4212 150.788V150.81ZM70.733 149.718C70.5255 147.676 70.5146 145.634 70.5036 143.592C70.5036 143.057 70.3508 142.5 69.7938 142.5C69.2369 142.5 69.1604 143.057 69.1495 143.592C69.1495 145.121 69.3897 146.617 69.3679 148.146C69.3444 149.215 69.4028 150.285 69.5426 151.345C69.5426 151.771 69.8047 152.022 70.1869 152.001C70.2689 152 70.3498 151.982 70.4242 151.947C70.4986 151.913 70.5648 151.863 70.6185 151.801C70.6722 151.739 70.7121 151.666 70.7356 151.588C70.7591 151.509 70.7656 151.427 70.7548 151.345C70.733 150.843 70.7439 150.297 70.733 149.751V149.718ZM66.9544 147.338C66.9544 146.038 66.9544 144.738 66.9544 143.439C66.9636 143.351 66.9543 143.263 66.9273 143.179C66.9002 143.095 66.856 143.018 66.7974 142.952C66.7389 142.886 66.6672 142.833 66.5871 142.797C66.5069 142.76 66.42 142.741 66.332 142.74C65.8951 142.74 65.775 143.035 65.7313 143.428C65.502 145.994 65.7313 148.561 65.7313 151.127C65.7313 151.564 65.8515 152.012 66.4302 151.979C67.009 151.946 67.0746 151.542 67.0636 151.072C66.9872 149.86 66.9763 148.615 66.9544 147.37V147.338ZM57.3006 151.378C57.388 151.575 57.4426 151.946 57.9558 151.957C58.4691 151.968 58.5783 151.717 58.6111 151.324C58.6111 150.636 58.6875 149.937 58.7421 149.249C58.8841 147.469 59.0042 145.689 59.1789 143.919C59.1789 143.428 59.1789 143.035 58.6548 142.969C58.1306 142.904 57.934 143.242 57.9012 143.745C57.9012 144.509 57.7593 145.274 57.7047 146.038C57.5627 147.796 57.4426 149.522 57.3006 151.411V151.378ZM61.6689 150.734C61.6689 150.952 61.6689 151.182 61.6689 151.4C61.6597 151.553 61.7104 151.703 61.8103 151.82C61.9102 151.936 62.0514 152.009 62.204 152.022C62.5207 152.022 62.7063 151.859 62.8483 151.608C62.9536 151.409 63.0062 151.188 63.0012 150.963C62.9356 148.943 63.1868 146.933 63.0776 144.913C63.0355 144.55 63.0355 144.184 63.0776 143.821C63.1541 143.362 63.0776 142.991 62.5753 142.937C62.0729 142.882 61.8545 143.297 61.8436 143.745C61.7453 146.114 61.7016 148.43 61.647 150.767L61.6689 150.734ZM55.2475 144.389V143.723C55.2475 143.33 55.0728 143.035 54.6469 143.013C54.5661 143.004 54.4842 143.012 54.4067 143.037C54.3293 143.062 54.2582 143.103 54.1981 143.158C54.138 143.213 54.0905 143.28 54.0586 143.355C54.0268 143.43 54.0114 143.51 54.0135 143.592C54.0135 143.788 53.9261 143.985 53.9043 144.181L53.4129 150.843C53.4129 151.236 53.5002 151.608 53.9589 151.695C54.4176 151.782 54.6687 151.422 54.7233 150.985C54.7779 150.548 54.7233 150.341 54.7233 150.024C54.909 148.102 55.0728 146.114 55.2257 144.422L55.2475 144.389ZM49.7872 150.384C49.7872 150.865 49.9073 151.302 50.366 151.378C50.8247 151.455 51.0431 150.941 51.1086 150.526C51.1741 150.111 51.1086 149.685 51.1741 149.26C51.327 147.458 51.4908 145.656 51.6437 143.865C51.6437 143.439 51.5236 143.111 51.054 143.057C50.5844 143.002 50.366 143.373 50.3114 143.799C50.2568 144.225 50.3114 144.498 50.3114 144.891C49.9838 146.715 50.0711 148.582 49.7654 150.417L49.7872 150.384ZM47.7341 143.766C47.7341 143.515 47.614 143.1 47.0789 143.111C46.5438 143.122 46.4455 143.515 46.4127 143.93C46.2489 145.994 46.0851 148.069 45.9322 150.133C45.9115 150.22 45.9096 150.31 45.9267 150.397C45.9437 150.485 45.9793 150.567 46.0311 150.64C46.0828 150.712 46.1495 150.773 46.2267 150.817C46.3038 150.862 46.3896 150.889 46.4783 150.898C46.5704 150.92 46.6665 150.92 46.7588 150.899C46.8512 150.877 46.9373 150.835 47.0103 150.774C47.0834 150.714 47.1415 150.638 47.1799 150.551C47.2183 150.464 47.2361 150.37 47.2318 150.275L47.7341 143.766ZM42.1318 149.227C42.1318 149.576 41.968 150.09 42.6342 150.166C43.3003 150.242 43.344 149.784 43.3877 149.314C43.5406 147.469 43.7044 145.623 43.8355 143.766C43.8355 143.417 43.7372 143.024 43.3113 142.991C43.2109 142.98 43.1094 142.991 43.0135 143.022C42.9175 143.054 42.8294 143.105 42.755 143.174C42.6806 143.242 42.6216 143.325 42.5819 143.418C42.5422 143.511 42.5228 143.611 42.525 143.712C42.3502 145.612 42.241 147.447 42.11 149.303L42.1318 149.227ZM40.1552 144.171C40.1552 143.996 40.1552 143.821 40.1552 143.646C40.1748 143.561 40.1749 143.472 40.1555 143.386C40.1362 143.3 40.0979 143.219 40.0435 143.15C39.989 143.081 39.9198 143.025 39.8409 142.986C39.7619 142.947 39.6753 142.927 39.5873 142.926C39.2051 142.926 38.9976 143.188 38.9649 143.537C38.8229 145.186 38.6918 146.813 38.5717 148.495C38.5717 148.91 38.6918 149.26 39.1614 149.281C39.631 149.303 39.7511 149.008 39.7839 148.604C39.8603 147.206 39.9914 145.732 40.1334 144.247L40.1552 144.171ZM35.361 146.923V147.338C35.361 147.763 35.361 148.255 35.9071 148.277C36.4531 148.299 36.5514 147.884 36.5842 147.414C36.6606 146.18 36.7589 144.946 36.8681 143.712C36.8681 143.275 36.8135 142.958 36.3548 142.915C35.8962 142.871 35.6887 143.111 35.6122 143.559C35.3938 144.815 35.5467 146.016 35.3392 146.999L35.361 146.923ZM33.7885 143.646C33.8191 143.558 33.8288 143.465 33.8169 143.372C33.805 143.28 33.7718 143.192 33.7199 143.114C33.668 143.037 33.5989 142.973 33.5179 142.927C33.4369 142.881 33.3464 142.854 33.2534 142.849C32.7619 142.751 32.5981 143.111 32.5435 143.417C32.3797 144.291 32.3033 145.175 32.205 146.06C32.1856 146.146 32.1856 146.236 32.2049 146.322C32.2242 146.408 32.2623 146.49 32.3166 146.559C32.3708 146.629 32.4399 146.686 32.5188 146.727C32.5976 146.767 32.6844 146.789 32.7729 146.792C32.8665 146.804 32.9616 146.796 33.0521 146.769C33.1425 146.742 33.2261 146.696 33.2974 146.634C33.3686 146.572 33.4259 146.495 33.4654 146.41C33.5048 146.324 33.5256 146.231 33.5264 146.136C33.6137 145.416 33.6793 144.586 33.7666 143.756L33.7885 143.646Z" fill="#333236"/>
<path d="M76.1494 128.641C76.3242 129.242 76.3788 130.072 77.1105 130.159C77.8421 130.247 78.0496 129.482 78.3882 128.98C78.4725 128.829 78.535 128.667 78.5738 128.499C78.5738 128.39 78.5738 128.27 78.6612 128.161L89.0904 126.217L99.9455 124.164L111.958 121.914L126.712 119.151C127.324 119.031 127.935 118.944 128.547 118.813C128.603 118.791 128.664 118.781 128.724 118.784C128.784 118.788 128.844 118.804 128.897 118.832C128.951 118.86 128.998 118.899 129.036 118.946C129.073 118.994 129.1 119.049 129.115 119.108C130.318 121.954 131.889 124.631 133.789 127.069C133.797 127.138 133.797 127.207 133.789 127.276L129.682 127.942C125.314 128.641 120.946 129.351 116.578 130.039L102.708 132.223C97.9579 132.966 93.2184 133.752 88.5116 134.407C87.4195 134.582 86.2292 134.571 85.0825 134.648C80.4085 134.953 75.7345 135.281 71.0604 135.543C69.4442 135.641 67.7842 135.849 66.2007 135.805H62.7607C62.5423 135.805 62.2365 135.696 62.1601 136.056L52.7684 136.679C49.1099 136.908 45.4625 137.17 41.8477 137.356C40.6565 137.293 39.4747 137.11 38.3204 136.81C37.676 136.722 37.0536 136.559 36.4202 136.439C36.4202 136.013 37.0317 136.275 37.0099 135.86L50.5624 133.282C55.1272 132.42 59.692 131.557 64.2569 130.738C64.6718 130.662 65.1851 130.345 65.5892 130.814C65.5182 131.153 65.5352 131.505 65.6384 131.836C65.7416 132.166 65.9277 132.465 66.1789 132.704C66.2519 132.752 66.3373 132.777 66.4246 132.777C66.5119 132.777 66.5973 132.752 66.6703 132.704C66.8826 132.607 67.072 132.466 67.2263 132.291C67.3806 132.116 67.4963 131.911 67.5658 131.688C67.6687 131.125 67.845 130.578 68.09 130.061C68.2647 130.061 68.4395 130.061 68.6033 129.995C71.1041 129.569 73.6049 129.023 76.1494 128.641ZM85.1808 132.278C84.5874 132.479 83.971 132.604 83.3461 132.649C82.9967 132.649 83.0622 133.151 82.8984 133.403C82.8984 133.479 83.1277 133.501 83.2697 133.501C83.4117 133.501 83.8157 133.566 84.0887 133.577C84.5343 133.643 84.9885 133.545 85.3678 133.303C85.7471 133.06 86.0259 132.688 86.1527 132.256C86.3056 131.448 85.9016 130.956 84.8204 130.607C84.3727 130.465 83.6519 130.476 83.7284 129.832C83.8048 129.187 84.5037 129.307 84.9952 129.286C85.2572 129.286 85.432 129.286 85.4538 128.947C85.4757 128.608 85.3337 128.543 85.0716 128.51C84.7291 128.45 84.3775 128.468 84.0428 128.563C83.7082 128.657 83.3991 128.826 83.1386 129.056C82.9937 129.196 82.8848 129.368 82.8212 129.559C82.7576 129.75 82.7412 129.954 82.7734 130.152C82.8056 130.351 82.8855 130.539 83.0061 130.7C83.1268 130.861 83.2847 130.99 83.4663 131.077C83.8133 131.24 84.1805 131.358 84.5583 131.426C84.9296 131.524 85.3337 131.699 85.1808 132.278ZM116.272 124.633C116.33 125.372 116.522 126.094 116.84 126.763C116.957 127.055 117.17 127.298 117.444 127.453C117.718 127.608 118.036 127.665 118.347 127.615C118.658 127.574 118.948 127.436 119.175 127.22C119.403 127.004 119.556 126.722 119.614 126.413C119.896 125.345 119.763 124.21 119.242 123.236C119.145 122.964 118.963 122.73 118.723 122.569C118.483 122.408 118.198 122.328 117.91 122.34C117.59 122.344 117.279 122.453 117.027 122.65C116.774 122.847 116.593 123.122 116.512 123.432C116.36 123.83 116.279 124.251 116.272 124.677V124.633ZM88.9703 127.702C88.5443 127.706 88.1212 127.772 87.7144 127.899C87.6519 127.902 87.5911 127.92 87.5367 127.951C87.4823 127.981 87.4358 128.025 87.4009 128.076C87.366 128.128 87.3435 128.188 87.3354 128.25C87.3273 128.312 87.3336 128.375 87.354 128.434C87.5615 129.755 87.769 131.087 87.9656 132.409C87.9656 132.682 88.1294 132.802 88.4242 132.715C88.7191 132.627 88.9375 132.627 88.8611 132.256L88.8283 131.917C88.6972 131.295 88.6536 130.825 89.5491 130.683C89.9361 130.619 90.2827 130.406 90.5152 130.09C90.7477 129.774 90.8477 129.379 90.794 128.991C90.6411 128.161 90.0732 127.724 89.003 127.746L88.9703 127.702ZM112.024 124.895C112.024 125.3 111.904 125.769 112.024 126.075C112.144 126.381 112.766 126.075 113.116 126.075C113.465 126.075 113.869 126.304 113.957 126.763C114.007 126.959 113.987 127.166 113.902 127.349C113.816 127.533 113.67 127.68 113.487 127.768C113.178 127.939 112.816 127.989 112.471 127.91C112.144 127.822 112.089 127.997 112.046 128.237C112.002 128.477 112.046 128.685 112.373 128.696C112.671 128.718 112.971 128.718 113.269 128.696C113.741 128.634 114.174 128.398 114.483 128.035C114.792 127.672 114.954 127.207 114.94 126.73C114.94 125.747 114.284 125.245 113.181 125.245C112.941 125.245 112.668 125.343 112.646 124.939C112.624 124.535 112.646 124.338 113.039 124.273L114.066 124.055C114.448 123.978 114.306 123.683 114.295 123.454C114.284 123.225 114.077 123.214 113.869 123.257C113.662 123.301 113.334 123.367 113.061 123.421C111.98 123.716 111.98 123.716 112.056 124.939L112.024 124.895ZM109.414 126.774C110.025 125.889 110.069 125.31 109.545 124.775C109.219 124.557 108.832 124.447 108.44 124.461C108.048 124.474 107.67 124.611 107.361 124.852C106.935 125.158 107.142 125.441 107.361 125.736C107.688 125.66 107.896 125.354 108.245 125.332C108.595 125.31 108.922 125.332 109.042 125.725C109.163 126.119 108.889 126.337 108.616 126.512C108.458 126.591 108.289 126.646 108.114 126.676C107.841 126.752 107.918 126.959 107.928 127.156C107.939 127.353 108.081 127.44 108.278 127.418H108.584C109.097 127.418 109.512 127.571 109.534 128.117C109.556 128.663 109.195 128.969 108.627 128.98H108.005C107.787 128.98 107.623 128.98 107.601 129.275C107.579 129.569 107.601 129.701 107.841 129.81C108.299 129.92 108.779 129.888 109.218 129.718C109.657 129.549 110.034 129.249 110.298 128.86C110.702 127.964 110.44 127.32 109.446 126.817L109.414 126.774ZM95.3807 126.49C95.4147 126.726 95.5307 126.942 95.7083 127.101C96.5273 128.193 97.5102 129.187 97.4338 130.705C97.4338 131.077 97.7286 131.033 97.9798 131C98.231 130.967 98.3729 130.814 98.3402 130.498C98.1053 129.707 98.1283 128.861 98.4057 128.084C98.7292 127.406 99.0029 126.705 99.2247 125.988C98.5586 125.856 98.1327 125.988 98.0235 126.697C97.9143 127.189 97.7505 127.658 97.6194 128.128C96.7894 127.713 96.9314 126.086 95.4134 126.534L95.3807 126.49ZM93.0437 131.95C93.6552 131.874 94.3432 131.786 95.0312 131.666C95.2824 131.666 95.5117 131.524 95.4353 131.175C95.3588 130.825 95.1732 130.804 94.8783 130.869C94.5835 130.935 94.2886 130.935 94.0047 131C93.7207 131.066 93.3822 131 93.3276 130.52C93.2184 129.504 93.0109 128.51 92.8798 127.505C92.8798 127.178 92.6942 127.069 92.3884 127.123C92.0826 127.178 91.8752 127.123 91.9407 127.549C92.1591 128.925 92.3666 130.301 92.585 131.666C92.6505 131.917 92.716 132.059 93.0764 131.917L93.0437 131.95ZM101.201 128.674L104.609 128.117C104.805 128.117 104.914 128.041 104.882 127.8C104.849 127.56 104.74 127.549 104.51 127.549L101.048 128.084C100.83 128.084 100.775 128.259 100.841 128.466C100.907 128.674 100.928 128.794 101.234 128.707L101.201 128.674Z" fill="#E14F3E"/>
<path d="M62.1711 136.144C62.2476 135.783 62.5534 135.893 62.7718 135.893H66.2118L65.764 136.024C64.7588 136.005 63.7539 136.074 62.7609 136.231L62.1711 136.144Z" fill="#C7584D"/>
<path d="M36.988 135.947C36.988 136.362 36.3765 136.1 36.3983 136.526L35.2407 136.351C35.7904 136.102 36.3845 135.964 36.988 135.947Z" fill="#C7584D"/>
<path d="M62.7607 136.188C63.7538 136.031 64.7587 135.961 65.7639 135.98C65.1087 136.329 64.4098 136.1 63.7218 136.166C63.402 136.189 63.0812 136.197 62.7607 136.188Z" fill="#1F0708"/>
<path d="M99.2358 152.666H98.7771C98.9191 152.448 99.072 152.437 99.2358 152.666Z" fill="#0E0C0F"/>
<path d="M76.1496 128.641C73.6051 129.002 71.1043 129.548 68.5816 130.017C68.4178 130.017 68.2431 130.017 68.0684 130.083C68.7674 127.461 69.6881 124.904 70.8204 122.438C70.8605 122.374 70.89 122.304 70.9077 122.231C71.0497 121.608 71.1807 120.986 71.9998 120.931C72.3955 120.878 72.7979 120.956 73.1451 121.153C73.4923 121.35 73.7652 121.656 73.9218 122.023C74.173 122.613 74.4569 122.711 75.0139 122.526C75.5708 122.34 75.6473 122.198 75.6036 121.739C75.6426 121.395 75.6426 121.047 75.6036 120.702C75.3087 119.916 75.7783 119.686 76.3571 119.49C76.1715 122.569 76.0295 125.616 76.1496 128.641Z" fill="#221F20"/>
<path d="M78.6286 128.183C78.6286 128.292 78.6286 128.412 78.5412 128.521C78.5159 128.463 78.5108 128.398 78.5266 128.337C78.5424 128.276 78.5783 128.221 78.6286 128.183Z" fill="#221F20"/>
<path d="M137.775 143.198C137.76 144.892 137.434 146.569 136.814 148.145C136.552 148.812 136.224 148.932 135.722 148.637C135.219 148.342 135.438 148.102 135.558 147.785C136.128 146.351 136.407 144.818 136.377 143.275C136.278 140.776 135.525 138.347 134.193 136.231C133.999 135.85 133.776 135.485 133.527 135.139C133.221 134.757 133.068 134.396 133.527 134.047C133.985 133.697 134.291 134.047 134.619 134.385C135.546 135.706 136.281 137.151 136.803 138.677C137.349 140.128 137.677 141.651 137.775 143.198Z" fill="#5C585D"/>
<path d="M134.324 144.793C134.339 146.156 134.155 147.513 133.778 148.823C133.647 149.292 133.406 149.642 132.882 149.445C132.358 149.249 132.435 148.899 132.544 148.452C133.117 146.346 133.188 144.135 132.749 141.997C132.311 139.859 131.377 137.854 130.021 136.144C129.704 135.729 129.508 135.358 130.021 134.986C130.534 134.615 130.818 134.986 131.113 135.336C132.801 137.509 133.859 140.104 134.171 142.838C134.278 143.484 134.329 144.138 134.324 144.793Z" fill="#5C595D"/>
<path d="M140.876 142.15C140.942 143.716 140.616 145.274 139.926 146.682C139.74 147.097 139.5 147.239 139.129 147.13C139.036 147.106 138.951 147.062 138.878 147C138.805 146.939 138.747 146.861 138.708 146.774C138.669 146.687 138.65 146.592 138.653 146.497C138.656 146.401 138.681 146.308 138.725 146.223C138.91 145.71 139.14 145.219 139.282 144.684C140.276 140.992 139.052 137.902 136.715 135.106C136.497 134.844 136.279 134.571 136.038 134.32C135.798 134.069 135.667 133.665 135.973 133.392C136.044 133.328 136.127 133.279 136.218 133.249C136.309 133.219 136.404 133.207 136.5 133.215C136.595 133.224 136.687 133.251 136.771 133.297C136.855 133.342 136.929 133.404 136.988 133.479C137.648 134.165 138.261 134.895 138.823 135.663C140.193 137.546 140.913 139.822 140.876 142.15Z" fill="#5C595D"/>
<path d="M130.906 146.605C130.969 147.463 130.895 148.326 130.687 149.161C130.578 149.62 130.338 149.914 129.846 149.805C129.355 149.696 129.322 149.325 129.431 148.877C130.13 145.994 129.333 143.318 128.208 140.719C127.644 139.443 126.945 138.232 126.122 137.105C125.86 136.744 125.62 136.362 126.057 136.012C126.494 135.663 126.92 136.012 127.149 136.34C128.243 137.939 129.159 139.652 129.879 141.451C130.573 143.08 130.923 144.835 130.906 146.605Z" fill="#5C595D"/>
<path d="M126.439 147.665C126.465 148.273 126.414 148.883 126.286 149.478C126.286 149.893 126.002 150.21 125.555 150.133C125.107 150.057 124.932 149.707 124.998 149.238C125.275 146.833 124.933 144.397 124.004 142.161C123.385 140.638 122.594 139.19 121.645 137.847C121.583 137.776 121.537 137.693 121.511 137.602C121.484 137.512 121.477 137.417 121.491 137.323C121.504 137.23 121.538 137.141 121.589 137.062C121.64 136.982 121.707 136.915 121.787 136.865C122.213 136.57 122.508 136.865 122.737 137.17C123.619 138.37 124.352 139.671 124.921 141.047C125.858 143.132 126.374 145.381 126.439 147.665Z" fill="#5C595D"/>
<path d="M121.929 147.829C121.981 148.486 121.94 149.148 121.809 149.794C121.809 150.198 121.525 150.45 121.099 150.362C120.673 150.275 120.476 150.078 120.553 149.63C120.893 146.626 120.254 143.592 118.729 140.981C118.347 140.228 117.943 139.496 117.495 138.797C117.266 138.415 117.124 137.989 117.659 137.705C118.194 137.421 118.369 137.793 118.598 138.142C120.05 140.289 121.088 142.689 121.656 145.219C121.868 146.072 121.959 146.95 121.929 147.829Z" fill="#5C595D"/>
<path d="M118.063 148.299C117.997 148.866 117.954 149.391 117.866 149.893C117.779 150.395 117.582 150.614 117.124 150.548C116.665 150.483 116.589 150.122 116.589 149.762C116.589 149.402 116.709 148.921 116.698 148.506C116.611 146.469 116.148 144.466 115.333 142.598C114.915 141.558 114.433 140.544 113.891 139.562C113.813 139.436 113.76 139.294 113.738 139.147C113.684 138.776 113.738 138.426 114.153 138.284C114.568 138.142 114.765 138.394 114.929 138.699C116.206 141.006 117.144 143.485 117.713 146.06C117.877 146.792 117.943 147.578 118.063 148.299Z" fill="#5C585D"/>
<path d="M113.87 149.074C113.87 149.391 113.87 149.718 113.87 150.046C113.878 150.133 113.866 150.221 113.834 150.303C113.803 150.384 113.753 150.458 113.688 150.517C113.624 150.576 113.546 150.62 113.462 150.644C113.378 150.668 113.29 150.673 113.203 150.657C113.115 150.659 113.027 150.643 112.946 150.608C112.864 150.573 112.791 150.522 112.731 150.457C112.671 150.392 112.626 150.314 112.598 150.23C112.57 150.146 112.561 150.057 112.57 149.969C112.515 146.915 111.893 143.896 110.735 141.069C110.572 140.599 110.364 140.152 110.2 139.682C110.036 139.213 110.2 138.994 110.517 138.885C110.595 138.846 110.68 138.825 110.767 138.823C110.854 138.82 110.941 138.837 111.021 138.871C111.101 138.905 111.172 138.956 111.23 139.021C111.289 139.086 111.332 139.162 111.358 139.245C112.512 141.859 113.306 144.619 113.717 147.447C113.806 147.985 113.858 148.529 113.87 149.074Z" fill="#5C595D"/>
<path d="M110.429 150.057C110.429 150.45 110.233 150.767 109.829 150.81C109.425 150.854 109.152 150.537 109.097 150.122C108.854 148.506 108.489 146.911 108.005 145.35C107.568 143.821 107.109 142.303 106.563 140.807C106.456 140.555 106.396 140.284 106.389 140.01C106.381 139.858 106.429 139.709 106.524 139.591C106.618 139.472 106.753 139.392 106.902 139.365C107.284 139.3 107.481 139.551 107.601 139.89C107.939 140.872 108.322 141.855 108.627 142.849C109.364 145.137 109.944 147.472 110.364 149.838C110.397 149.915 110.408 149.991 110.429 150.057Z" fill="#5C595D"/>
<path d="M107.284 150.024C107.284 150.483 107.186 150.777 106.815 150.854C106.443 150.93 106.192 150.657 106.072 150.297C105.46 148.375 104.838 146.453 104.226 144.542C103.844 143.362 103.473 142.172 103.134 140.992C102.992 140.556 102.807 140.075 103.429 139.9C104.052 139.726 104.205 140.152 104.347 140.61C105.315 143.646 106.28 146.675 107.241 149.696C107.264 149.804 107.279 149.914 107.284 150.024Z" fill="#5C595D"/>
<path d="M103.375 150.188C103.37 150.361 103.305 150.527 103.192 150.659C103.078 150.79 102.923 150.878 102.752 150.908C102.37 150.996 102.163 150.745 102.053 150.395C101.376 148.003 100.699 145.623 100.011 143.231C99.8256 142.565 99.64 141.899 99.4434 141.233C99.3124 140.774 99.4434 140.392 99.8693 140.272C100.295 140.152 100.568 140.49 100.677 140.872C101.387 143.329 102.075 145.787 102.785 148.244C102.96 148.888 103.178 149.521 103.375 150.188Z" fill="#5C585D"/>
<path d="M99.6835 150.144C99.6835 150.537 99.5852 150.898 99.1702 150.941C98.7552 150.985 98.5587 150.777 98.4385 150.362C97.6304 147.468 96.7895 144.585 95.9596 141.702C95.8394 141.276 95.6647 140.752 96.2653 140.61C96.866 140.468 97.0516 140.861 97.1936 141.386C97.958 144.127 98.7552 146.846 99.5415 149.609C99.5961 149.751 99.6398 149.947 99.6835 150.144Z" fill="#5C585D"/>
<path d="M95.9051 150.231C95.9051 150.668 95.9051 150.963 95.4901 151.028C95.4018 151.058 95.308 151.068 95.2154 151.058C95.1228 151.047 95.0337 151.016 94.9544 150.967C94.8751 150.918 94.8076 150.852 94.7568 150.774C94.7059 150.696 94.6729 150.607 94.6601 150.515C94.2233 148.713 93.7537 146.911 93.295 145.055L92.6071 142.39C92.5678 142.273 92.5385 142.152 92.5197 142.03C92.5197 141.571 92.334 140.938 92.9784 140.861C93.6227 140.785 93.6554 141.287 93.7646 141.713C94.4636 144.432 95.1625 147.173 95.8505 149.86C95.8832 150.056 95.8942 150.209 95.9051 150.231Z" fill="#5C595D"/>
<path d="M89.0687 142.03C89.0521 141.883 89.0911 141.736 89.1781 141.617C89.265 141.497 89.3935 141.415 89.5383 141.386C89.6221 141.356 89.7117 141.345 89.8003 141.354C89.889 141.362 89.9746 141.391 90.0509 141.437C90.1272 141.483 90.1924 141.545 90.2416 141.619C90.2908 141.694 90.3229 141.778 90.3355 141.866C90.5539 142.674 90.7504 143.493 90.947 144.313C91.4275 146.322 91.8971 148.32 92.3995 150.319C92.4351 150.407 92.4506 150.501 92.4448 150.596C92.439 150.691 92.4121 150.783 92.366 150.865C92.3199 150.948 92.2558 151.02 92.1784 151.074C92.101 151.129 92.0124 151.166 91.919 151.182C91.5149 151.302 91.2419 151.029 91.1545 150.657C90.4556 147.818 89.7676 144.968 89.0796 142.128C89.0796 142.107 89.0687 142.074 89.0687 142.03Z" fill="#5C595D"/>
<path d="M89.014 150.482C89.014 150.963 89.014 151.334 88.5553 151.4C88.0967 151.465 87.9001 151.214 87.8018 150.766C87.1903 148.134 86.5569 145.513 85.9453 142.892C85.929 142.693 85.929 142.492 85.9453 142.292C85.9453 141.953 86.0764 141.669 86.4149 141.626C86.4953 141.608 86.5784 141.607 86.6593 141.623C86.7401 141.638 86.817 141.67 86.8853 141.716C86.9536 141.762 87.012 141.821 87.0569 141.89C87.1018 141.959 87.1323 142.036 87.1466 142.117L89.0468 150.286C89.0456 150.353 89.0346 150.419 89.014 150.482Z" fill="#5C595D"/>
<path d="M75.7346 143.352C75.7346 143.199 75.7346 143.046 75.7346 142.904C75.737 142.751 75.7966 142.604 75.9017 142.493C76.0069 142.382 76.1499 142.314 76.3025 142.303C76.6738 142.238 76.8595 142.467 76.925 142.795C77.0451 143.472 77.1652 144.149 77.2526 144.837C77.5256 146.923 77.7768 149.008 78.0607 151.094C78.0607 151.542 78.0607 151.913 77.5584 152.012C77.056 152.11 76.8048 151.859 76.7502 151.367C76.4226 148.845 76.0841 146.322 75.7565 143.799C75.7565 143.646 75.7565 143.494 75.7565 143.352H75.7346Z" fill="#5C595D"/>
<path d="M74.5005 151.181C74.5005 151.607 74.4132 152.033 73.8235 152.077C73.2337 152.12 73.1791 151.684 73.1464 151.236C72.928 148.615 72.6877 145.994 72.4802 143.373C72.4802 142.947 72.4802 142.543 73.059 142.499C73.6378 142.456 73.7579 142.751 73.7907 143.231C73.9654 145.554 74.1474 147.88 74.3367 150.209C74.3695 150.482 74.4459 150.843 74.5005 151.181Z" fill="#5C585D"/>
<path d="M81.6754 150.81C81.6754 151.181 81.7519 151.618 81.2604 151.771C81.1253 151.808 80.9814 151.797 80.8538 151.739C80.7262 151.681 80.6228 151.581 80.5615 151.454C80.4528 151.178 80.3829 150.888 80.354 150.592C79.9609 148.08 79.5787 145.557 79.1964 143.046C79.1309 142.62 79.1964 142.227 79.6988 142.117C79.791 142.09 79.8881 142.085 79.9826 142.102C80.0772 142.119 80.1666 142.157 80.2438 142.214C80.321 142.271 80.3839 142.346 80.4277 142.431C80.4714 142.517 80.4948 142.611 80.496 142.707C80.9001 145.317 81.2823 147.938 81.6754 150.548C81.6809 150.635 81.6809 150.723 81.6754 150.81Z" fill="#5C595D"/>
<path d="M85.4213 150.788C85.4213 151.105 85.4213 151.422 84.9299 151.476C84.8454 151.501 84.7564 151.506 84.6696 151.492C84.5827 151.478 84.5001 151.445 84.4278 151.394C84.3556 151.344 84.2955 151.278 84.252 151.202C84.2084 151.125 84.1826 151.04 84.1764 150.952C83.8815 149.489 83.5757 148.036 83.2918 146.584C83.0406 145.317 82.844 144.039 82.582 142.783C82.4727 142.303 82.6475 142.041 83.0515 141.943C83.4556 141.844 83.7395 142.095 83.8269 142.532C84.2965 145.011 84.7879 147.49 85.2684 149.969C85.3121 150.231 85.3667 150.483 85.4213 150.788Z" fill="#5C595D"/>
<path d="M70.7329 149.751C70.7329 150.297 70.7329 150.843 70.7329 151.4C70.7437 151.481 70.7372 151.564 70.7137 151.642C70.6902 151.721 70.6503 151.794 70.5966 151.855C70.5429 151.917 70.4767 151.967 70.4023 152.002C70.3279 152.036 70.247 152.054 70.165 152.055C69.7828 152.055 69.5753 151.826 69.5207 151.4C69.3809 150.339 69.3225 149.27 69.346 148.2C69.346 146.671 69.073 145.175 69.1276 143.646C69.1276 143.144 69.1276 142.554 69.7719 142.554C70.4162 142.554 70.4708 143.057 70.4817 143.646C70.5145 145.667 70.5254 147.709 70.7329 149.751Z" fill="#5C585D"/>
<path d="M66.9543 147.37C66.9543 148.615 66.9543 149.86 66.9543 151.105C66.9543 151.575 66.8888 151.99 66.3209 152.012C65.753 152.033 65.6111 151.597 65.622 151.16C65.622 148.593 65.4036 146.027 65.622 143.461C65.622 143.068 65.7858 142.74 66.2226 142.773C66.3107 142.774 66.3976 142.793 66.4777 142.83C66.5579 142.866 66.6295 142.919 66.6881 142.985C66.7467 143.051 66.7909 143.128 66.8179 143.212C66.8449 143.296 66.8542 143.384 66.8451 143.472C66.9106 144.771 66.9325 146.114 66.9543 147.37Z" fill="#5C585D"/>
<path d="M57.3005 151.411C57.4425 149.521 57.5626 147.796 57.7046 146.07C57.7046 145.306 57.8684 144.542 57.9012 143.777C57.9012 143.275 58.1196 142.925 58.6547 143.002C59.1898 143.078 59.2226 143.46 59.1789 143.952C59.0041 145.721 58.884 147.501 58.7421 149.281C58.7421 149.969 58.6547 150.668 58.611 151.356C58.611 151.749 58.4144 152 57.9558 151.989C57.4971 151.978 57.3879 151.574 57.3005 151.411Z" fill="#5C595D"/>
<path d="M61.647 150.766C61.647 148.429 61.7453 146.092 61.8218 143.755C61.8218 143.308 61.9747 142.871 62.5535 142.947C63.1323 143.024 63.1323 143.373 63.0558 143.832C63.0137 144.195 63.0137 144.561 63.0558 144.924C63.165 146.944 62.9138 148.954 62.9794 150.974C62.9844 151.198 62.9318 151.42 62.8265 151.618C62.6845 151.869 62.4989 152.088 62.1822 152.033C62.0296 152.019 61.8884 151.947 61.7885 151.83C61.6886 151.714 61.6379 151.564 61.647 151.411C61.647 151.192 61.647 150.963 61.647 150.745V150.766Z" fill="#5C595D"/>
<path d="M55.2257 144.422C55.0728 146.158 54.909 148.102 54.7452 150.057C54.7452 150.374 54.7452 150.701 54.7452 151.018C54.7452 151.335 54.505 151.815 53.9808 151.728C53.4566 151.64 53.4129 151.269 53.4347 150.876L53.9262 144.214C53.9262 144.018 54.0135 143.821 54.0354 143.625C54.0333 143.543 54.0486 143.462 54.0805 143.388C54.1123 143.313 54.1599 143.246 54.22 143.191C54.28 143.136 54.3512 143.094 54.4286 143.069C54.5061 143.044 54.588 143.036 54.6688 143.046C55.0947 143.046 55.2585 143.362 55.2694 143.756L55.2257 144.422Z" fill="#5C595D"/>
<path d="M49.7652 150.417C50.071 148.582 49.9836 146.715 50.2566 144.869C50.2566 144.531 50.2566 144.171 50.2566 143.777C50.2566 143.384 50.4641 142.98 50.9992 143.035C51.5344 143.089 51.6217 143.417 51.589 143.843C51.4361 145.634 51.2723 147.436 51.1194 149.238C51.1194 149.664 51.1194 150.089 51.0538 150.504C50.9883 150.919 50.8573 151.433 50.3112 151.356C49.7652 151.28 49.7106 150.898 49.7652 150.417Z" fill="#5C595D"/>
<path d="M47.7123 143.799L47.2099 150.351C47.2142 150.446 47.1965 150.541 47.1581 150.627C47.1196 150.714 47.0616 150.79 46.9885 150.851C46.9154 150.911 46.8293 150.954 46.737 150.975C46.6446 150.996 46.5486 150.996 46.4564 150.974C46.3678 150.965 46.282 150.938 46.2049 150.894C46.1277 150.849 46.061 150.789 46.0093 150.716C45.9575 150.644 45.9219 150.561 45.9048 150.473C45.8878 150.386 45.8897 150.296 45.9104 150.209C46.0633 148.145 46.2271 146.071 46.3909 144.007C46.3909 143.592 46.5219 143.188 47.0571 143.188C47.5922 143.188 47.6686 143.548 47.7123 143.799Z" fill="#5C585D"/>
<path d="M42.1099 149.303C42.2409 147.446 42.3501 145.612 42.503 143.843C42.5009 143.742 42.5203 143.641 42.5599 143.549C42.5996 143.456 42.6586 143.372 42.733 143.304C42.8074 143.236 42.8956 143.184 42.9915 143.153C43.0874 143.122 43.1889 143.111 43.2893 143.122C43.7152 143.122 43.8462 143.548 43.8135 143.897C43.6824 145.754 43.5186 147.599 43.3657 149.445C43.3657 149.914 43.2784 150.362 42.6122 150.297C41.9461 150.231 42.1645 149.652 42.1099 149.303Z" fill="#5C585D"/>
<path d="M40.1332 144.247C39.9913 145.732 39.8602 147.206 39.7182 148.681C39.7182 149.085 39.5107 149.38 39.0958 149.358C38.6808 149.336 38.4733 148.987 38.506 148.572C38.6262 146.923 38.7572 145.295 38.8992 143.614C38.8992 143.264 39.1394 142.969 39.5217 143.002C39.6096 143.003 39.6963 143.024 39.7752 143.063C39.8541 143.102 39.9233 143.158 39.9778 143.227C40.0322 143.296 40.0705 143.376 40.0899 143.462C40.1092 143.548 40.1091 143.637 40.0895 143.723C40.0895 143.897 40.0895 144.072 40.0895 144.247H40.1332Z" fill="#5C595D"/>
<path d="M35.3392 146.999C35.5467 146.016 35.3392 144.815 35.5904 143.635C35.6668 143.187 35.8852 142.936 36.333 142.991C36.7807 143.045 36.8899 143.351 36.8462 143.788C36.737 145.022 36.6387 146.256 36.5623 147.49C36.5623 147.96 36.4531 148.386 35.8852 148.353C35.3173 148.32 35.3283 147.84 35.3392 147.414V146.999Z" fill="#5C595D"/>
<path d="M33.7667 143.756C33.6794 144.586 33.6138 145.416 33.5046 146.246C33.5039 146.34 33.4831 146.433 33.4436 146.519C33.4041 146.605 33.3469 146.681 33.2756 146.743C33.2044 146.805 33.1207 146.851 33.0303 146.878C32.9399 146.905 32.8447 146.913 32.7511 146.901C32.6627 146.898 32.5759 146.876 32.497 146.836C32.4181 146.796 32.3491 146.739 32.2948 146.669C32.2406 146.599 32.2024 146.518 32.1832 146.431C32.1639 146.345 32.1639 146.255 32.1832 146.169C32.2815 145.284 32.358 144.4 32.5218 143.526C32.5218 143.22 32.7402 142.86 33.2316 142.958C33.3246 142.963 33.4152 142.99 33.4961 143.036C33.5771 143.082 33.6463 143.146 33.6982 143.223C33.7501 143.301 33.7833 143.389 33.7952 143.481C33.8071 143.574 33.7973 143.668 33.7667 143.756Z" fill="#5C585D"/>
<path d="M116.272 124.677C116.278 124.248 116.359 123.823 116.512 123.421C116.594 123.111 116.774 122.837 117.027 122.639C117.279 122.442 117.59 122.333 117.91 122.329C118.199 122.317 118.484 122.397 118.723 122.558C118.963 122.72 119.145 122.953 119.242 123.225C119.764 124.199 119.896 125.335 119.614 126.403C119.556 126.711 119.403 126.993 119.175 127.209C118.948 127.425 118.658 127.563 118.347 127.604C118.036 127.654 117.718 127.597 117.444 127.442C117.17 127.287 116.957 127.044 116.84 126.752C116.529 126.1 116.336 125.397 116.272 124.677ZM117.44 125.769C117.458 126.068 117.561 126.356 117.735 126.599C117.788 126.702 117.87 126.786 117.972 126.841C118.073 126.895 118.189 126.918 118.303 126.905C118.415 126.889 118.519 126.836 118.598 126.755C118.677 126.674 118.727 126.57 118.74 126.457C118.976 125.452 118.824 124.395 118.314 123.498C118.052 123.05 117.648 122.974 117.408 123.596C117.262 123.937 117.19 124.305 117.195 124.675C117.201 125.046 117.284 125.411 117.44 125.748V125.769Z" fill="#1D0606"/>
<path d="M89.0033 127.746C90.0954 127.746 90.6632 128.161 90.7943 129.012C90.848 129.401 90.7479 129.795 90.5154 130.111C90.283 130.428 89.9364 130.641 89.5493 130.705C88.6538 130.836 88.6975 131.317 88.8286 131.939L88.8941 132.3C88.9705 132.671 88.6975 132.682 88.4573 132.758C88.217 132.835 88.0423 132.758 87.9986 132.452C87.802 131.131 87.5945 129.799 87.387 128.477C87.3667 128.418 87.3603 128.355 87.3684 128.293C87.3766 128.231 87.399 128.172 87.4339 128.12C87.4688 128.068 87.5153 128.025 87.5697 127.994C87.6241 127.963 87.685 127.946 87.7474 127.942C88.1542 127.816 88.5773 127.75 89.0033 127.746ZM88.4573 129.22C88.5883 129.438 88.1515 130.17 88.9814 130.126C89.1023 130.132 89.223 130.111 89.3351 130.065C89.4473 130.02 89.5482 129.951 89.6312 129.863C89.7141 129.774 89.7771 129.669 89.8157 129.555C89.8544 129.44 89.8678 129.318 89.8551 129.198C89.8551 128.619 89.4074 128.445 88.8613 128.466C88.3153 128.488 88.2825 128.641 88.4573 129.22Z" fill="#1D0606"/>
<path d="M112.057 124.939C111.98 123.716 111.98 123.716 113.149 123.498C113.422 123.443 113.695 123.399 113.957 123.334C114.219 123.268 114.372 123.225 114.383 123.53C114.394 123.836 114.536 124.055 114.154 124.131L113.127 124.35C112.712 124.415 112.723 124.71 112.734 125.016C112.745 125.321 113.029 125.321 113.269 125.321C114.361 125.321 114.973 125.824 115.027 126.807C115.042 127.283 114.879 127.748 114.571 128.111C114.262 128.475 113.829 128.71 113.356 128.772C113.058 128.794 112.759 128.794 112.461 128.772C112.166 128.772 112.079 128.598 112.133 128.314C112.188 128.03 112.231 127.899 112.559 127.986C112.904 128.066 113.265 128.015 113.575 127.844C113.757 127.757 113.904 127.609 113.989 127.426C114.075 127.243 114.094 127.035 114.044 126.839C113.957 126.381 113.651 126.217 113.203 126.151C112.756 126.086 112.319 126.555 112.111 126.151C111.904 125.747 112.068 125.365 112.057 124.939Z" fill="#1D0606"/>
<path d="M109.447 126.817C110.44 127.32 110.703 127.909 110.299 128.86C110.036 129.251 109.659 129.553 109.22 129.724C108.781 129.896 108.3 129.93 107.841 129.821C107.557 129.711 107.579 129.526 107.601 129.285C107.623 129.045 107.787 128.98 108.005 128.991H108.606C109.174 128.991 109.534 128.685 109.512 128.128C109.49 127.571 109.075 127.385 108.562 127.429H108.256C108.06 127.429 107.918 127.429 107.907 127.167C107.896 126.905 107.82 126.763 108.093 126.686C108.267 126.657 108.436 126.601 108.595 126.523C108.868 126.348 109.13 126.118 109.021 125.736C108.912 125.354 108.573 125.365 108.224 125.365C107.874 125.365 107.667 125.693 107.339 125.769C107.142 125.474 106.935 125.19 107.339 124.884C107.649 124.644 108.027 124.507 108.419 124.493C108.811 124.48 109.197 124.59 109.523 124.808C110.102 125.365 110.058 125.933 109.447 126.817Z" fill="#1F0708"/>
<path d="M85.1809 132.278C85.3338 131.699 84.9298 131.524 84.5039 131.426C84.1261 131.358 83.7589 131.241 83.4118 131.077C83.2302 130.99 83.0723 130.861 82.9517 130.7C82.831 130.539 82.7511 130.351 82.7189 130.152C82.6867 129.954 82.7031 129.75 82.7667 129.559C82.8304 129.369 82.9393 129.196 83.0842 129.056C83.3447 128.826 83.6537 128.657 83.9884 128.563C84.323 128.468 84.6746 128.45 85.0171 128.51C85.2792 128.51 85.4212 128.652 85.3994 128.947C85.3775 129.242 85.2028 129.286 84.9407 129.286C84.4493 129.286 83.7394 129.133 83.6739 129.832C83.6084 130.531 84.3291 130.465 84.766 130.607C85.858 130.957 86.2512 131.448 86.0983 132.256C85.9727 132.678 85.7022 133.042 85.3346 133.283C84.967 133.525 84.5258 133.629 84.0889 133.577C83.8159 133.577 83.5429 133.577 83.2698 133.501C83.1606 132.955 83.2698 132.682 83.9469 132.769C84.4165 132.835 84.9407 132.857 85.1809 132.278Z" fill="#1D0606"/>
<path d="M95.4136 126.533C96.9315 126.086 96.7896 127.713 97.5977 128.172C97.7288 127.702 97.8926 127.232 98.0018 126.741C98.1437 126.086 98.5369 125.9 99.203 126.031C98.9812 126.749 98.7075 127.45 98.384 128.128C98.1066 128.905 98.0836 129.75 98.3185 130.541C98.3185 130.858 98.3185 131.011 97.9581 131.044C97.5977 131.076 97.4011 131.12 97.412 130.749C97.4885 129.231 96.5056 128.226 95.6866 127.145C95.5291 126.978 95.4328 126.762 95.4136 126.533Z" fill="#1D0606"/>
<path d="M93.0766 131.917C92.7162 132.027 92.6507 131.852 92.6179 131.633C92.3995 130.268 92.192 128.892 91.9736 127.516C91.9081 127.145 92.1701 127.134 92.4213 127.09C92.6725 127.047 92.8581 127.09 92.9128 127.473C93.0438 128.477 93.2513 129.471 93.3605 130.487C93.4151 130.978 93.6226 131.055 94.0376 130.967C94.4526 130.88 94.6273 130.902 94.9112 130.836C95.1952 130.771 95.3917 130.836 95.4682 131.142C95.5446 131.448 95.3153 131.59 95.0641 131.633C94.3761 131.786 93.6881 131.917 93.0766 131.917Z" fill="#1D0606"/>
<path d="M101.234 128.707C100.929 128.794 100.885 128.63 100.841 128.445C100.798 128.259 100.841 128.095 101.049 128.063L104.511 127.549C104.74 127.549 104.882 127.549 104.915 127.855C104.947 128.161 104.838 128.139 104.642 128.172L101.234 128.707Z" fill="#1F0708"/>
<path d="M85.1809 132.278C84.9406 132.857 84.4164 132.835 83.9469 132.769C83.3025 132.682 83.1606 132.955 83.2698 133.501C83.1278 133.501 82.8548 133.501 82.8985 133.403C83.0623 133.151 82.9968 132.649 83.3462 132.649C83.971 132.604 84.5875 132.479 85.1809 132.278Z" fill="#C7584D"/>
<path d="M117.408 123.574C117.648 122.952 118.052 123.028 118.314 123.476C118.824 124.373 118.976 125.43 118.74 126.435C118.727 126.548 118.677 126.652 118.598 126.733C118.519 126.814 118.415 126.867 118.303 126.883C118.189 126.896 118.073 126.873 117.972 126.819C117.87 126.764 117.788 126.68 117.735 126.577C117.561 126.334 117.458 126.046 117.44 125.747L117.408 123.574Z" fill="#DC5243"/>
<path d="M117.408 123.574V125.758C117.252 125.415 117.172 125.043 117.172 124.666C117.172 124.29 117.252 123.917 117.408 123.574Z" fill="#C7584D"/>
<path d="M88.4571 129.22C88.2714 128.674 88.4025 128.488 88.8611 128.467C89.3198 128.445 89.8222 128.62 89.8549 129.198C89.8676 129.319 89.8542 129.44 89.8155 129.555C89.7769 129.67 89.7139 129.775 89.631 129.863C89.5481 129.951 89.4471 130.02 89.3349 130.066C89.2228 130.111 89.1022 130.132 88.9813 130.127C88.1622 130.17 88.599 129.439 88.4571 129.22ZM88.7083 129.22C88.7956 129.406 88.5881 129.777 89.0359 129.799C89.3089 129.799 89.3089 129.602 89.3307 129.395C89.3548 129.248 89.3234 129.097 89.2427 128.972C89.162 128.847 89.0377 128.756 88.8939 128.718C88.6427 128.696 88.7738 129.035 88.7192 129.242L88.7083 129.22Z" fill="#C7584D"/>
<path d="M88.7192 129.242C88.7738 129.035 88.6428 128.696 88.9049 128.74C89.0487 128.778 89.173 128.869 89.2537 128.994C89.3344 129.119 89.3658 129.27 89.3417 129.417C89.3417 129.624 89.3417 129.832 89.0469 129.821C88.5991 129.799 88.8066 129.428 88.7192 129.242Z" fill="#E14F3E"/>
<path d="M85.6068 209.836C115.092 209.836 157.683 190.987 170.351 140.807C162.171 145.448 151.513 154.588 128.798 151.05C94.2996 145.677 82.1122 154.807 52.3535 153.573C31.2548 152.666 12.1655 147.02 3.27612 143.93C14.1968 189.229 54.4502 209.836 85.6068 209.836Z" fill="white"/>
<path d="M49.4813 59.9944C50.2111 59.9944 50.8027 59.4027 50.8027 58.673C50.8027 57.9432 50.2111 57.3516 49.4813 57.3516C48.7515 57.3516 48.1599 57.9432 48.1599 58.673C48.1599 59.4027 48.7515 59.9944 49.4813 59.9944Z" fill="white"/>
<path d="M157.126 139.966C158.007 139.966 158.721 139.252 158.721 138.372C158.721 137.491 158.007 136.777 157.126 136.777C156.246 136.777 155.532 137.491 155.532 138.372C155.532 139.252 156.246 139.966 157.126 139.966Z" fill="white"/>
<path d="M113.88 68.2829C113.88 68.5745 113.794 68.8595 113.632 69.1019C113.47 69.3444 113.24 69.5334 112.97 69.6449C112.701 69.7565 112.405 69.7857 112.119 69.7288C111.833 69.672 111.57 69.5315 111.364 69.3254C111.158 69.1192 111.017 68.8565 110.96 68.5705C110.903 68.2845 110.933 67.9881 111.044 67.7187C111.156 67.4493 111.345 67.2191 111.587 67.0571C111.83 66.8951 112.115 66.8086 112.406 66.8086C112.6 66.8086 112.791 66.8467 112.97 66.9208C113.149 66.9949 113.312 67.1035 113.449 67.2404C113.586 67.3773 113.694 67.5398 113.768 67.7187C113.842 67.8976 113.88 68.0893 113.88 68.2829Z" fill="white"/>
<path d="M93.721 70.3359C93.7124 70.6735 93.6043 71.001 93.4103 71.2774C93.2162 71.5537 92.9449 71.7666 92.6303 71.8894C92.3157 72.0122 91.9719 72.0393 91.642 71.9674C91.312 71.8955 91.0107 71.7278 90.7757 71.4853C90.5407 71.2428 90.3826 70.9363 90.3211 70.6042C90.2597 70.2722 90.2976 69.9294 90.4302 69.6188C90.5629 69.3083 90.7842 69.0438 91.0666 68.8586C91.3489 68.6733 91.6797 68.5756 92.0174 68.5777C92.2458 68.5776 92.4719 68.6234 92.6822 68.7124C92.8925 68.8014 93.0828 68.9318 93.2418 69.0958C93.4007 69.2598 93.525 69.4541 93.6073 69.6672C93.6897 69.8802 93.7283 70.1076 93.721 70.3359Z" fill="white"/>
<path d="M70.5255 133.162C70.5255 133.478 70.432 133.786 70.2568 134.048C70.0816 134.31 69.8326 134.515 69.5412 134.635C69.2499 134.756 68.9293 134.788 68.62 134.726C68.3107 134.665 68.0266 134.513 67.8037 134.29C67.5807 134.067 67.4288 133.783 67.3673 133.473C67.3058 133.164 67.3374 132.843 67.458 132.552C67.5787 132.261 67.7831 132.012 68.0453 131.837C68.3075 131.661 68.6157 131.568 68.9311 131.568C69.3539 131.568 69.7595 131.736 70.0585 132.035C70.3575 132.334 70.5255 132.739 70.5255 133.162Z" fill="white"/>
<path d="M135.296 89.84C135.296 90.1791 135.195 90.5106 135.007 90.7926C134.818 91.0745 134.551 91.2943 134.237 91.4241C133.924 91.5538 133.579 91.5878 133.247 91.5216C132.914 91.4555 132.609 91.2922 132.369 91.0524C132.129 90.8126 131.966 90.5071 131.9 90.1745C131.833 89.8419 131.867 89.4972 131.997 89.1839C132.127 88.8706 132.347 88.6028 132.629 88.4144C132.911 88.226 133.242 88.1255 133.581 88.1255C134.036 88.1255 134.472 88.3061 134.794 88.6277C135.115 88.9492 135.296 89.3853 135.296 89.84Z" fill="white"/>
<path d="M21.6557 121.685C21.6557 121.974 21.5699 122.257 21.4091 122.498C21.2483 122.739 21.0198 122.926 20.7524 123.037C20.485 123.148 20.1907 123.177 19.9069 123.12C19.623 123.064 19.3623 122.924 19.1576 122.72C18.953 122.515 18.8136 122.254 18.7571 121.971C18.7007 121.687 18.7296 121.392 18.8404 121.125C18.9512 120.858 19.1387 120.629 19.3794 120.468C19.62 120.308 19.9029 120.222 20.1924 120.222C20.5796 120.225 20.9502 120.38 21.224 120.653C21.4978 120.927 21.6529 121.298 21.6557 121.685Z" fill="white"/>
<path d="M76.8923 68.7853C76.8901 69.0743 76.8024 69.3561 76.6403 69.5953C76.4782 69.8345 76.249 70.0204 75.9814 70.1295C75.7138 70.2386 75.4199 70.266 75.1368 70.2083C74.8536 70.1506 74.5939 70.0104 74.3903 69.8053C74.1868 69.6002 74.0485 69.3395 73.9929 69.0559C73.9373 68.7723 73.9669 68.4787 74.078 68.2119C74.1891 67.9451 74.3766 67.7172 74.617 67.5569C74.8574 67.3966 75.1399 67.311 75.4289 67.311C75.622 67.311 75.8132 67.3492 75.9914 67.4235C76.1697 67.4977 76.3315 67.6065 76.4675 67.7435C76.6036 67.8805 76.7111 68.0432 76.784 68.222C76.8569 68.4008 76.8937 68.5922 76.8923 68.7853Z" fill="white"/>
<path d="M61.92 86.8369C61.9221 87.1294 61.8372 87.416 61.6761 87.6601C61.5149 87.9042 61.2848 88.0949 61.0149 88.2078C60.7451 88.3207 60.4478 88.3508 60.1608 88.2943C59.8738 88.2378 59.6101 88.0971 59.4032 87.8903C59.1964 87.6835 59.0558 87.4198 58.9992 87.1328C58.9427 86.8458 58.9728 86.5484 59.0857 86.2786C59.1987 86.0088 59.3893 85.7786 59.6335 85.6175C59.8776 85.4563 60.1641 85.3714 60.4566 85.3736C60.8447 85.3736 61.2169 85.5277 61.4914 85.8022C61.7658 86.0766 61.92 86.4488 61.92 86.8369Z" fill="white"/>
<path d="M30.3922 79.6731C30.3922 79.9651 30.3054 80.2506 30.1429 80.4932C29.9804 80.7359 29.7495 80.9249 29.4795 81.0361C29.2095 81.1474 28.9125 81.1759 28.6262 81.1182C28.34 81.0604 28.0773 80.9189 27.8715 80.7116C27.6658 80.5043 27.5263 80.2406 27.4706 79.9539C27.415 79.6672 27.4457 79.3705 27.559 79.1013C27.6722 78.8321 27.8629 78.6026 28.1068 78.4419C28.3507 78.2812 28.6368 78.1966 28.9288 78.1988C29.1219 78.1988 29.3131 78.237 29.4913 78.3112C29.6696 78.3854 29.8314 78.4942 29.9674 78.6312C30.1035 78.7683 30.211 78.9309 30.2839 79.1097C30.3568 79.2885 30.3936 79.48 30.3922 79.6731Z" fill="white"/>
<path d="M20.8038 98.38C20.8038 98.6716 20.7173 98.9567 20.5553 99.1991C20.3933 99.4416 20.1631 99.6305 19.8937 99.7421C19.6243 99.8537 19.3279 99.8829 19.0419 99.826C18.7559 99.7691 18.4932 99.6287 18.287 99.4225C18.0808 99.2163 17.9404 98.9536 17.8836 98.6677C17.8267 98.3817 17.8559 98.0853 17.9674 97.8159C18.079 97.5465 18.268 97.3162 18.5104 97.1542C18.7529 96.9922 19.0379 96.9058 19.3295 96.9058C19.5231 96.9058 19.7148 96.9439 19.8937 97.018C20.0726 97.0921 20.2351 97.2007 20.372 97.3376C20.5089 97.4745 20.6175 97.637 20.6916 97.8159C20.7657 97.9947 20.8038 98.1864 20.8038 98.38Z" fill="white"/>
<path d="M11.4666 135.707C11.4644 136.02 11.37 136.325 11.1954 136.585C11.0207 136.845 10.7735 137.047 10.4845 137.168C10.1955 137.288 9.87754 137.32 9.57022 137.261C9.26289 137.202 8.97981 137.053 8.75627 136.834C8.53273 136.615 8.37861 136.335 8.31312 136.029C8.24764 135.723 8.27368 135.404 8.38801 135.113C8.50234 134.822 8.6999 134.57 8.95606 134.391C9.21222 134.211 9.51565 134.11 9.82852 134.102C10.0425 134.096 10.2554 134.133 10.4547 134.211C10.6539 134.289 10.8354 134.407 10.9882 134.557C11.1411 134.707 11.2622 134.886 11.3444 135.083C11.4266 135.281 11.4682 135.493 11.4666 135.707Z" fill="white"/>
<path d="M114.667 158.76C114.669 159.076 114.577 159.385 114.403 159.649C114.229 159.913 113.981 160.119 113.69 160.241C113.399 160.363 113.078 160.397 112.768 160.336C112.458 160.276 112.173 160.125 111.949 159.902C111.725 159.68 111.572 159.396 111.509 159.086C111.447 158.777 111.478 158.456 111.598 158.164C111.718 157.872 111.923 157.622 112.185 157.446C112.448 157.271 112.756 157.177 113.072 157.177C113.493 157.177 113.897 157.343 114.196 157.64C114.494 157.937 114.664 158.339 114.667 158.76Z" fill="white"/>
<path d="M36.4749 148.298C36.4771 148.591 36.3922 148.877 36.231 149.122C36.0698 149.366 35.8397 149.556 35.5699 149.669C35.3 149.782 35.0027 149.812 34.7157 149.756C34.4287 149.699 34.165 149.559 33.9582 149.352C33.7513 149.145 33.6107 148.881 33.5542 148.594C33.4976 148.307 33.5277 148.01 33.6407 147.74C33.7536 147.47 33.9443 147.24 34.1884 147.079C34.4325 146.918 34.719 146.833 35.0115 146.835C35.3996 146.835 35.7719 146.989 36.0463 147.264C36.3207 147.538 36.4749 147.91 36.4749 148.298Z" fill="white"/>
<path d="M56.7872 129.34C56.7872 129.632 56.7004 129.918 56.538 130.16C56.3755 130.403 56.1446 130.592 55.8745 130.703C55.6045 130.814 55.3075 130.843 55.0212 130.785C54.735 130.727 54.4723 130.586 54.2666 130.379C54.0608 130.171 53.9213 129.908 53.8656 129.621C53.81 129.334 53.8407 129.037 53.954 128.768C54.0673 128.499 54.2579 128.27 54.5018 128.109C54.7457 127.948 55.0318 127.864 55.3238 127.866C55.5169 127.866 55.7081 127.904 55.8864 127.978C56.0646 128.052 56.2264 128.161 56.3625 128.298C56.4985 128.435 56.6061 128.598 56.679 128.777C56.7518 128.955 56.7886 129.147 56.7872 129.34Z" fill="white"/>
<path d="M64.1586 176.528C64.1586 176.77 64.0869 177.007 63.9525 177.208C63.8181 177.409 63.6271 177.566 63.4036 177.658C63.1801 177.751 62.9342 177.775 62.6969 177.728C62.4596 177.681 62.2417 177.564 62.0706 177.393C61.8996 177.222 61.7831 177.004 61.7359 176.767C61.6887 176.53 61.7129 176.284 61.8055 176.06C61.8981 175.837 62.0549 175.646 62.256 175.511C62.4571 175.377 62.6936 175.305 62.9355 175.305C63.2599 175.305 63.571 175.434 63.8004 175.663C64.0298 175.893 64.1586 176.204 64.1586 176.528Z" fill="white"/>
<path d="M158.895 118.572C159.571 118.572 160.118 118.025 160.118 117.349C160.118 116.674 159.571 116.126 158.895 116.126C158.22 116.126 157.672 116.674 157.672 117.349C157.672 118.025 158.22 118.572 158.895 118.572Z" fill="white"/>
<path d="M115.966 88.8027C115.966 89.0446 115.895 89.2811 115.76 89.4822C115.626 89.6834 115.435 89.8401 115.211 89.9327C114.988 90.0253 114.742 90.0495 114.505 90.0023C114.267 89.9551 114.049 89.8386 113.878 89.6676C113.707 89.4965 113.591 89.2786 113.544 89.0413C113.496 88.8041 113.521 88.5581 113.613 88.3346C113.706 88.1111 113.862 87.9201 114.064 87.7857C114.265 87.6513 114.501 87.5796 114.743 87.5796C115.068 87.5796 115.379 87.7084 115.608 87.9378C115.837 88.1672 115.966 88.4783 115.966 88.8027Z" fill="white"/>
<path d="M38.3425 124.731C38.3425 124.974 38.2704 125.211 38.1355 125.412C38.0007 125.613 37.809 125.77 37.5849 125.862C37.3607 125.955 37.1142 125.978 36.8767 125.93C36.6391 125.882 36.4212 125.765 36.2506 125.592C36.08 125.42 35.9644 125.201 35.9184 124.963C35.8725 124.725 35.8983 124.479 35.9925 124.256C36.0868 124.032 36.2452 123.842 36.4478 123.709C36.6504 123.576 36.8879 123.506 37.1303 123.508C37.4528 123.511 37.7611 123.641 37.9881 123.87C38.2151 124.099 38.3425 124.409 38.3425 124.731Z" fill="white"/>
<path d="M147.92 113.975C147.92 114.217 147.848 114.453 147.714 114.655C147.58 114.856 147.389 115.013 147.165 115.105C146.942 115.198 146.696 115.222 146.458 115.175C146.221 115.127 146.003 115.011 145.832 114.84C145.661 114.669 145.545 114.451 145.497 114.214C145.45 113.976 145.474 113.731 145.567 113.507C145.66 113.284 145.816 113.092 146.017 112.958C146.219 112.824 146.455 112.752 146.697 112.752C147.021 112.752 147.332 112.881 147.562 113.11C147.791 113.34 147.92 113.651 147.92 113.975Z" fill="white"/>
<path d="M51.6 161.578C51.5914 161.818 51.5125 162.05 51.373 162.245C51.2335 162.44 51.0396 162.59 50.8155 162.676C50.5913 162.762 50.3469 162.78 50.1126 162.728C49.8783 162.676 49.6645 162.556 49.4977 162.384C49.331 162.211 49.2188 161.993 49.175 161.757C49.1313 161.521 49.1579 161.278 49.2516 161.057C49.3454 160.836 49.502 160.647 49.7021 160.515C49.9022 160.382 50.1369 160.311 50.3769 160.311C50.5412 160.311 50.7039 160.344 50.8553 160.408C51.0066 160.472 51.1434 160.566 51.2576 160.685C51.3717 160.803 51.4609 160.943 51.5197 161.096C51.5786 161.25 51.6059 161.414 51.6 161.578Z" fill="white"/>
<path d="M46.4346 77.8603C46.426 78.1741 46.3249 78.4784 46.1441 78.735C45.9633 78.9916 45.7107 79.1891 45.4181 79.3028C45.1255 79.4165 44.8058 79.4412 44.4992 79.374C44.1925 79.3067 43.9126 79.1504 43.6944 78.9247C43.4762 78.699 43.3295 78.4139 43.2727 78.1052C43.2159 77.7965 43.2514 77.4778 43.375 77.1892C43.4985 76.9006 43.7044 76.6549 43.967 76.4829C44.2296 76.3109 44.5372 76.2202 44.8511 76.2222C45.0633 76.2236 45.273 76.2673 45.4681 76.3508C45.6632 76.4343 45.8396 76.5559 45.9871 76.7084C46.1346 76.861 46.2501 77.0415 46.327 77.2392C46.4038 77.437 46.4404 77.6482 46.4346 77.8603Z" fill="white"/>
<path d="M149.514 169.146C150.274 169.146 150.89 168.53 150.89 167.77C150.89 167.01 150.274 166.394 149.514 166.394C148.754 166.394 148.138 167.01 148.138 167.77C148.138 168.53 148.754 169.146 149.514 169.146Z" fill="white"/>
<path d="M131.124 120.221C131.854 120.221 132.446 119.63 132.446 118.9C132.446 118.17 131.854 117.579 131.124 117.579C130.394 117.579 129.803 118.17 129.803 118.9C129.803 119.63 130.394 120.221 131.124 120.221Z" fill="white"/>
<path d="M142.252 136.723C142.252 137.012 142.166 137.295 142.006 137.536C141.845 137.776 141.616 137.964 141.349 138.075C141.081 138.185 140.787 138.214 140.503 138.158C140.219 138.101 139.959 137.962 139.754 137.757C139.549 137.553 139.41 137.292 139.354 137.008C139.297 136.724 139.326 136.43 139.437 136.163C139.548 135.895 139.735 135.667 139.976 135.506C140.216 135.345 140.499 135.259 140.789 135.259C141.177 135.259 141.549 135.413 141.824 135.688C142.098 135.962 142.252 136.335 142.252 136.723Z" fill="white"/>
<path d="M66.0044 110.218C66.0066 110.51 65.922 110.796 65.7613 111.04C65.6006 111.284 65.3711 111.475 65.1019 111.588C64.8328 111.701 64.536 111.732 64.2493 111.676C63.9626 111.621 63.6989 111.481 63.4916 111.276C63.2843 111.07 63.1428 110.807 63.085 110.521C63.0273 110.235 63.0558 109.938 63.1671 109.668C63.2783 109.398 63.4673 109.167 63.71 109.004C63.9526 108.842 64.2381 108.755 64.5302 108.755C64.9193 108.755 65.2926 108.909 65.5688 109.183C65.845 109.457 66.0016 109.829 66.0044 110.218Z" fill="white"/>
<path d="M133.898 165.837C133.9 166.153 133.808 166.463 133.634 166.727C133.46 166.991 133.211 167.197 132.919 167.319C132.627 167.441 132.306 167.473 131.995 167.412C131.685 167.351 131.4 167.199 131.176 166.975C130.953 166.752 130.801 166.467 130.739 166.156C130.678 165.846 130.711 165.524 130.833 165.233C130.955 164.941 131.161 164.692 131.425 164.518C131.688 164.343 131.998 164.251 132.315 164.253C132.734 164.253 133.137 164.42 133.434 164.717C133.731 165.014 133.898 165.417 133.898 165.837Z" fill="white"/>
<path d="M126.789 141.561C126.791 141.877 126.699 142.187 126.524 142.45C126.35 142.714 126.101 142.92 125.809 143.042C125.518 143.164 125.196 143.197 124.886 143.136C124.576 143.075 124.29 142.923 124.067 142.699C123.843 142.475 123.691 142.19 123.63 141.88C123.569 141.57 123.601 141.248 123.723 140.956C123.845 140.665 124.051 140.416 124.315 140.241C124.579 140.067 124.889 139.975 125.205 139.977C125.625 139.977 126.028 140.144 126.325 140.441C126.622 140.738 126.789 141.141 126.789 141.561Z" fill="white"/>
<path d="M152.201 93.466C152.201 93.8056 152.1 94.1375 151.911 94.4197C151.722 94.7019 151.454 94.9216 151.14 95.0511C150.826 95.1805 150.481 95.2138 150.148 95.1468C149.815 95.0797 149.51 94.9154 149.27 94.6745C149.031 94.4336 148.869 94.1271 148.804 93.7938C148.739 93.4605 148.774 93.1154 148.906 92.8023C149.037 92.4892 149.259 92.2222 149.542 92.0351C149.825 91.848 150.158 91.7493 150.497 91.7515C150.722 91.7515 150.945 91.7959 151.152 91.8822C151.359 91.9685 151.548 92.095 151.706 92.2543C151.864 92.4137 151.99 92.6028 152.075 92.8107C152.159 93.0187 152.202 93.2414 152.201 93.466Z" fill="white"/>
<path d="M149.624 152.743C150.191 152.743 150.65 152.283 150.65 151.716C150.65 151.15 150.191 150.69 149.624 150.69C149.057 150.69 148.597 151.15 148.597 151.716C148.597 152.283 149.057 152.743 149.624 152.743Z" fill="white"/>
<path d="M114.667 109.978C114.667 110.22 114.595 110.456 114.461 110.658C114.326 110.859 114.135 111.015 113.912 111.108C113.688 111.201 113.442 111.225 113.205 111.178C112.968 111.13 112.75 111.014 112.579 110.843C112.408 110.672 112.291 110.454 112.244 110.217C112.197 109.979 112.221 109.733 112.314 109.51C112.406 109.286 112.563 109.095 112.764 108.961C112.965 108.827 113.202 108.755 113.444 108.755C113.604 108.755 113.763 108.787 113.912 108.848C114.06 108.909 114.195 109 114.308 109.113C114.422 109.227 114.512 109.362 114.574 109.51C114.635 109.658 114.667 109.817 114.667 109.978Z" fill="white"/>
<path d="M77.0014 53.409C77.0035 53.6513 76.9336 53.8889 76.8006 54.0914C76.6675 54.294 76.4772 54.4525 76.2539 54.5467C76.0306 54.641 75.7844 54.6668 75.5464 54.6208C75.3084 54.5749 75.0895 54.4592 74.9173 54.2886C74.7452 54.118 74.6276 53.9001 74.5795 53.6625C74.5314 53.425 74.555 53.1785 74.6472 52.9544C74.7395 52.7302 74.8962 52.5386 75.0976 52.4037C75.299 52.2688 75.5359 52.1968 75.7782 52.1968C76.1007 52.1968 76.4102 52.3241 76.6393 52.5511C76.8683 52.7782 76.9985 53.0865 77.0014 53.409Z" fill="white"/>
<path d="M99.6291 55.1342C99.6291 55.3762 99.5573 55.6126 99.423 55.8138C99.2886 56.0149 99.0975 56.1717 98.874 56.2643C98.6505 56.3568 98.4046 56.381 98.1674 56.3339C97.9301 56.2867 97.7122 56.1702 97.5411 55.9991C97.37 55.8281 97.2536 55.6101 97.2064 55.3729C97.1592 55.1356 97.1834 54.8897 97.276 54.6662C97.3685 54.4427 97.5253 54.2517 97.7265 54.1173C97.9276 53.9829 98.1641 53.9111 98.406 53.9111C98.7304 53.9111 99.0415 54.04 99.2708 54.2694C99.5002 54.4988 99.6291 54.8099 99.6291 55.1342Z" fill="white"/>
<path d="M125.194 59.0439C125.194 59.2858 125.123 59.5223 124.988 59.7234C124.854 59.9246 124.663 60.0813 124.439 60.1739C124.216 60.2665 123.97 60.2907 123.733 60.2435C123.495 60.1963 123.277 60.0798 123.106 59.9088C122.935 59.7377 122.819 59.5198 122.772 59.2825C122.724 59.0453 122.749 58.7993 122.841 58.5758C122.934 58.3524 123.09 58.1613 123.292 58.0269C123.493 57.8925 123.729 57.8208 123.971 57.8208C124.132 57.8208 124.291 57.8524 124.439 57.9139C124.588 57.9754 124.722 58.0655 124.836 58.179C124.95 58.2926 125.04 58.4275 125.101 58.5758C125.163 58.7242 125.194 58.8833 125.194 59.0439Z" fill="white"/>
<path d="M59.2118 149.008C59.2118 149.25 59.1404 149.486 59.0064 149.687C58.8725 149.888 58.6821 150.044 58.4593 150.137C58.2364 150.23 57.9911 150.255 57.7541 150.209C57.5171 150.162 57.2992 150.047 57.1277 149.877C56.9562 149.707 56.8389 149.49 56.7905 149.254C56.7421 149.017 56.7647 148.771 56.8556 148.548C56.9465 148.324 57.1016 148.132 57.3013 147.997C57.501 147.861 57.7364 147.787 57.9778 147.785C58.3032 147.785 58.6155 147.914 58.8466 148.143C59.0777 148.372 59.209 148.683 59.2118 149.008Z" fill="white"/>
<path d="M42.5905 104.245C42.5905 104.487 42.5188 104.723 42.3844 104.924C42.25 105.125 42.059 105.282 41.8355 105.375C41.612 105.467 41.366 105.491 41.1288 105.444C40.8915 105.397 40.6736 105.281 40.5025 105.109C40.3315 104.938 40.215 104.72 40.1678 104.483C40.1206 104.246 40.1448 104 40.2374 103.777C40.33 103.553 40.4867 103.362 40.6879 103.228C40.889 103.093 41.1255 103.021 41.3674 103.021C41.6918 103.021 42.0029 103.15 42.2323 103.38C42.4617 103.609 42.5905 103.92 42.5905 104.245Z" fill="white"/>
<path d="M136.541 74.3549C137.216 74.3549 137.764 73.8073 137.764 73.1318C137.764 72.4563 137.216 71.9087 136.541 71.9087C135.865 71.9087 135.318 72.4563 135.318 73.1318C135.318 73.8073 135.865 74.3549 136.541 74.3549Z" fill="white"/>
<path d="M25.3796 157.111C25.3905 157.355 25.3281 157.597 25.2005 157.805C25.0729 158.013 24.8859 158.179 24.6636 158.28C24.4413 158.381 24.1938 158.413 23.9531 158.372C23.7123 158.331 23.4893 158.219 23.3128 158.05C23.1362 157.882 23.0142 157.664 22.9624 157.425C22.9106 157.187 22.9314 156.938 23.0222 156.711C23.1129 156.485 23.2695 156.29 23.4716 156.153C23.6738 156.016 23.9123 155.943 24.1565 155.943C24.4716 155.943 24.7747 156.064 25.0026 156.282C25.2305 156.499 25.3655 156.797 25.3796 157.111Z" fill="white"/>
<path d="M108.933 128.783C108.931 129.025 108.858 129.26 108.722 129.46C108.586 129.66 108.394 129.815 108.171 129.906C107.947 129.996 107.701 130.019 107.465 129.971C107.228 129.922 107.011 129.805 106.841 129.633C106.672 129.462 106.556 129.244 106.51 129.007C106.463 128.77 106.488 128.525 106.581 128.302C106.674 128.079 106.831 127.889 107.032 127.755C107.233 127.621 107.469 127.549 107.71 127.549C107.872 127.549 108.032 127.581 108.181 127.643C108.33 127.706 108.465 127.797 108.579 127.911C108.693 128.026 108.782 128.162 108.843 128.312C108.904 128.462 108.935 128.622 108.933 128.783Z" fill="white"/>
<path d="M86 40.064C105.365 40.0753 124.13 46.7802 139.117 59.0427C154.104 71.3053 164.392 88.3717 168.237 107.351C172.082 126.33 169.249 146.054 160.216 163.183C151.184 180.312 136.508 193.792 118.675 201.34C98.1627 210.006 75.0485 210.168 54.4168 201.792C33.7851 193.416 17.3259 177.186 8.66009 156.675C-0.00573591 136.163 -0.168342 113.049 8.20805 92.4168C16.5844 71.7851 32.8137 55.3259 53.3255 46.6601C63.6651 42.2994 74.7786 40.0708 86 40.1077V40.064ZM86 38.0437C68.989 38.0437 52.36 43.0886 38.2165 52.5403C24.0729 61.9921 13.0501 75.426 6.54222 91.143C0.0343665 106.86 -1.66617 124.154 1.6557 140.838C4.97757 157.521 13.1726 172.845 25.2043 184.87C37.236 196.896 52.5638 205.083 69.2491 208.397C85.9343 211.71 103.227 210.001 118.941 203.485C134.655 196.969 148.083 185.939 157.528 171.791C166.972 157.643 172.009 141.011 172 124C172 101.191 162.939 79.3169 146.811 63.1888C130.683 47.0607 108.809 38 86 38V38.0437Z" fill="#D2E9E9"/>
<path opacity="0.05" d="M86 210C133.496 210 172 171.496 172 124C172 76.5035 133.496 38 86 38C38.5035 38 0 76.5035 0 124C0 171.496 38.5035 210 86 210Z" fill="white"/>
<path opacity="0.3" d="M36.1363 74.1363C50.5985 59.6786 70.0189 51.2635 90.4576 50.5983C110.896 49.9331 130.823 57.0676 146.194 70.5543C145.044 69.2584 143.85 67.9843 142.612 66.7321C127.465 51.8514 107.054 43.5555 85.8203 43.6497C64.5868 43.744 44.2498 52.2207 29.2353 67.2353C14.2207 82.2498 5.74396 102.587 5.64972 123.82C5.55548 145.054 13.8514 165.465 28.7321 180.612C29.977 181.857 31.2511 183.051 32.5543 184.194C19.0676 168.823 11.9331 148.896 12.5983 128.458C13.2635 108.019 21.6786 88.5985 36.1363 74.1363Z" fill="white"/>
<path opacity="0.3" d="M166.059 123.585C166.059 145.819 125.806 156.926 85.5631 156.926C45.3206 156.926 5.06714 145.819 5.06714 123.585C5.06714 102.236 13.5479 81.7615 28.6439 66.6656C43.7398 51.5697 64.2143 43.0889 85.5631 43.0889C106.912 43.0889 127.386 51.5697 142.482 66.6656C157.578 81.7615 166.059 102.236 166.059 123.585Z" fill="url(#paint1_linear)" fill-opacity="0.8"/>
</g>
<defs>
<linearGradient id="paint0_linear" x1="91.5483" y1="5.29892" x2="91.8339" y2="33.1053" gradientUnits="userSpaceOnUse">
<stop stop-color="#0F8272"/>
<stop offset="0.421875" stop-color="#788699"/>
<stop offset="1" stop-color="#788699"/>
</linearGradient>
<linearGradient id="paint1_linear" x1="85.5631" y1="156.926" x2="85.5631" y2="43.0889" gradientUnits="userSpaceOnUse">
<stop stop-color="white"/>
<stop offset="1" stop-color="white"/>
</linearGradient>
<clipPath id="clip0">
<rect width="172" height="172" fill="white" transform="translate(0 38)"/>
</clipPath>
</defs>
</svg>
