<?xml version="1.0" encoding="utf-8"?>
<!-- Generator: Adobe Illustrator 24.0.1, SVG Export Plug-In . SVG Version: 6.00 Build 0)  -->
<svg version="1.1" id="Календарь_1_" xmlns="http://www.w3.org/2000/svg" xmlns:xlink="http://www.w3.org/1999/xlink"
	 x="0px" y="0px" viewBox="0 0 67 67" style="enable-background:new 0 0 67 67;" xml:space="preserve">
<style type="text/css">
	.st0{fill:#FFFFFF;}
</style>
<g id="Календарь">
	<g>
		<path class="st0" d="M61.9,3h-7.1V1c0-0.6-0.5-1-1-1c-0.6,0-1,0.5-1,1v2H41.3V1c0-0.6-0.5-1-1-1c-0.6,0-1,0.5-1,1v2H27.8V1
			c0-0.6-0.5-1-1-1c-0.6,0-1,0.5-1,1v2H14.2V1c0-0.6-0.5-1-1-1c-0.6,0-1,0.5-1,1v2H5.1C2.3,3,0,5.3,0,8.1v5.1v48.7
			C0,64.7,2.3,67,5.1,67h28.4c12.9,0,23.3-10.5,23.3-23.3c0-12.9-10.5-23.4-23.3-23.4S10.2,30.8,10.2,43.7c0,4.3,1.2,8.5,3.5,12.2
			L12,57.1l5.6,2.3l-0.8-6l-1.6,1.2c-2-3.3-3-7.1-3-10.9c0-11.8,9.6-21.3,21.3-21.3c11.8,0,21.3,9.6,21.3,21.3
			c0,11.8-9.6,21.3-21.3,21.3H5.1c-1.7,0-3-1.4-3-3V14.2H65v47.7c0,1.7-1.4,3-3,3H51.8c-0.6,0-1,0.5-1,1c0,0.6,0.5,1,1,1h10.1
			c2.8,0,5.1-2.3,5.1-5.1V13.2V8.1C67,5.3,64.7,3,61.9,3z M65,12.2H2V8.1c0-1.7,1.4-3,3-3h7.1v2c0,0.6,0.5,1,1,1c0.6,0,1-0.5,1-1v-2
			h11.5v2c0,0.6,0.5,1,1,1c0.6,0,1-0.5,1-1v-2h11.5v2c0,0.6,0.5,1,1,1c0.6,0,1-0.5,1-1v-2h11.5v2c0,0.6,0.5,1,1,1c0.6,0,1-0.5,1-1
			v-2h7.1c1.7,0,3,1.4,3,3V12.2z M47.7,43.7c0-7.8-6.4-14.2-14.2-14.2c-7.8,0-14.2,6.4-14.2,14.2c0,7.8,6.4,14.2,14.2,14.2
			C41.3,57.9,47.7,51.5,47.7,43.7z M21.3,43.7c0-6.7,5.5-12.2,12.2-12.2c6.7,0,12.2,5.5,12.2,12.2c0,6.7-5.5,12.2-12.2,12.2
			C26.8,55.8,21.3,50.4,21.3,43.7z M34.5,51.9V51c2-0.4,3.6-2.1,3.6-4.1c0-2-1.2-4.2-4.6-4.2c-1.7,0-2.5-0.7-2.5-2.2
			c0-1.2,1.1-2.2,2.5-2.2c1.1,0,2,0.6,2.4,1.5c0.2,0.5,0.8,0.8,1.3,0.5c0.5-0.2,0.8-0.8,0.5-1.3c-0.6-1.3-1.8-2.3-3.2-2.6v-0.9
			c0-0.6-0.5-1-1-1c-0.6,0-1,0.5-1,1v0.9c-2,0.4-3.5,2.1-3.5,4.1c0,2,1.2,4.2,4.6,4.2c1.7,0,2.5,0.7,2.5,2.2c0,1.2-1.1,2.2-2.5,2.2
			c-1.1,0-2-0.6-2.4-1.4c-0.2-0.5-0.8-0.8-1.3-0.5c-0.5,0.2-0.8,0.8-0.5,1.3c0.6,1.3,1.8,2.3,3.2,2.6v0.9c0,0.6,0.5,1,1,1
			C34.1,52.9,34.5,52.4,34.5,51.9z"/>
	</g>
</g>
</svg>
