<?xml version="1.0" encoding="utf-8"?>
<!-- Generator: Adobe Illustrator 24.0.1, SVG Export Plug-In . SVG Version: 6.00 Build 0)  -->
<svg version="1.1" id="Сертификат_1_" xmlns="http://www.w3.org/2000/svg" xmlns:xlink="http://www.w3.org/1999/xlink"
	 x="0px" y="0px" viewBox="0 0 62 68" style="enable-background:new 0 0 62 68;" xml:space="preserve">
<style type="text/css">
	.st0{fill:#FFFFFF;}
</style>
<g id="Сертификат">
	<g>
		<path class="st0" d="M61,0H1C0.5,0,0,0.5,0,1V67c0,0.6,0.5,1,1,1H61c0.6,0,1-0.5,1-1V1C62,0.5,61.5,0,61,0z M59.9,65.9H2.1V2.1
			h57.9V65.9z M7.7,56.2c2.3,0,4.1,1.8,4.1,4.1c0,0.6,0.5,1,1,1h36.2c0.6,0,1-0.5,1-1c0-2.3,1.9-4.1,4.1-4.1c0.6,0,1-0.5,1-1V12.9
			c0-0.6-0.5-1-1-1c-2.3,0-4.1-1.8-4.1-4.1c0-0.6-0.5-1-1-1H12.9c-0.6,0-1,0.5-1,1c0,2.3-1.9,4.1-4.1,4.1c-0.6,0-1,0.5-1,1v42.2
			C6.7,55.7,7.2,56.2,7.7,56.2z M8.8,13.8c2.6-0.4,4.6-2.5,5.1-5.1h34.3c0.4,2.6,2.5,4.6,5.1,5.1v40.4c-2.6,0.4-4.6,2.5-5.1,5.1
			H13.9c-0.4-2.6-2.5-4.6-5.1-5.1V13.8z M17.9,42.9c2.4,1.3,6.6,2.7,13.1,2.7s10.7-1.5,13.1-2.7c1.3-0.7,2.2-2.1,2.2-3.7v-1.4
			c0-2.2-1.2-4.2-3.2-5.2c-1-0.5-2.2-1-3.5-1.4c-0.5-0.2-1-0.3-1.5-0.5c-1.3-0.4-2.2-1.4-2.5-2.6c2-1.7,3.3-4.3,3.3-7.4
			c0-4.7-3.2-8-7.8-8c-4.6,0-7.8,3.3-7.8,8c0,3,1.3,5.7,3.3,7.4c-0.2,1.2-1.2,2.3-2.5,2.6c-0.5,0.1-1,0.3-1.6,0.5
			c-1.3,0.4-2.4,0.9-3.5,1.4c-2,1-3.2,3-3.2,5.2v1.5C15.7,40.8,16.5,42.2,17.9,42.9z M25.3,20.7c0-3.6,2.2-6,5.7-6
			c3.5,0,5.7,2.3,5.7,6c0,3.9-2.6,7-5.7,7C27.8,27.7,25.3,24.6,25.3,20.7z M28.3,29.2c0.8,0.4,1.7,0.6,2.7,0.6
			c0.9,0,1.9-0.2,2.7-0.6c0.4,1.1,1.1,2,2.1,2.7c-0.3,1.6-2.4,2.9-4.8,2.9c-2.4,0-4.5-1.3-4.8-2.9C27.2,31.3,27.9,30.3,28.3,29.2z
			 M17.8,37.8c0-1.4,0.8-2.7,2.1-3.4c1-0.5,2-0.9,3.2-1.3c0.4-0.1,0.8-0.2,1.2-0.4c0.7,2.3,3.5,4.1,6.7,4.1c3.3,0,6-1.7,6.7-4.1
			c0.4,0.1,0.8,0.2,1.2,0.3c1.2,0.4,2.2,0.8,3.2,1.3c1.3,0.7,2.1,2,2.1,3.4v1.4c0,0.8-0.4,1.5-1.1,1.8c-1.8,0.9-5.7,2.5-12.1,2.5
			c-6.4,0-10.4-1.6-12.1-2.5c-0.7-0.4-1.1-1.1-1.1-1.8V37.8z M16.7,52.5h8.3c0.6,0,1-0.5,1-1c0-0.6-0.5-1-1-1h-8.3c-0.6,0-1,0.5-1,1
			C15.7,52,16.2,52.5,16.7,52.5z M45.2,50.4H31c-0.6,0-1,0.5-1,1c0,0.6,0.5,1,1,1h14.3c0.6,0,1-0.5,1-1
			C46.3,50.9,45.8,50.4,45.2,50.4z"/>
	</g>
</g>
</svg>
