<?xml version="1.0" encoding="utf-8"?>
<!-- Generator: Adobe Illustrator 24.0.1, SVG Export Plug-In . SVG Version: 6.00 Build 0)  -->
<svg version="1.1" id="Часы_1_" xmlns="http://www.w3.org/2000/svg" xmlns:xlink="http://www.w3.org/1999/xlink" x="0px"
	 y="0px" viewBox="0 0 68 69" style="enable-background:new 0 0 68 69;" xml:space="preserve">
<style type="text/css">
	.st0{fill:#FFFFFF;}
</style>
<g id="Часы">
	<g>
		<path class="st0" d="M42.1,60.2v-5.6v-6.7c0-0.6-0.5-1-1-1H24.9c-0.6,0-1,0.5-1,1v6.7v6.7c0,0.6,0.5,1,1,1V68c0,0.6,0.5,1,1,1
			h16.1c0.6,0,1-0.5,1-1v-6.7C43.1,60.7,42.6,60.2,42.1,60.2z M25.9,48.9H40v4.6H25.9V48.9z M25.9,55.6H40v4.6H25.9V55.6z M41,66.9
			H27v-4.6H41V66.9z M68,34.5C68,15.5,52.7,0,34,0C15.3,0,0,15.5,0,34.5c0,2,0.2,3.9,0.5,5.8C0.2,40.5,0,40.8,0,41.2v6.7
			c0,0.6,0.5,1,1,1h1v4.6H1c-0.6,0-1,0.5-1,1v6.7c0,0.6,0.5,1,1,1h2.1V68c0,0.6,0.5,1,1,1h16.1c0.6,0,1-0.5,1-1v-6.7
			c0-0.6-0.5-1-1-1h-2.1v-4.6h1c0.6,0,1-0.5,1-1v-6.7c0-0.6-0.5-1-1-1h-1v-5.6c0-0.6-0.5-1-1-1H2.6c-0.3-1.5-0.4-3.1-0.5-4.6h4.1
			c0.6,0,1-0.5,1-1c0-0.6-0.5-1-1-1H2.1c0.2-5.1,1.5-10,3.8-14.2l3.6,2.1c0.2,0.1,0.3,0.1,0.5,0.1c0.4,0,0.7-0.2,0.9-0.5
			c0.3-0.5,0.1-1.1-0.4-1.4l-3.6-2.1C9.5,13.2,13,9.6,17.2,7l2.1,3.6c0.2,0.3,0.5,0.5,0.9,0.5c0.2,0,0.4,0,0.5-0.1
			c0.5-0.3,0.7-0.9,0.4-1.4l-2.1-3.6c4.2-2.3,9-3.7,14-3.8v4.2c0,0.6,0.5,1,1,1c0.6,0,1-0.5,1-1V2.1c5.1,0.2,9.8,1.5,14,3.8L47,9.6
			c-0.3,0.5-0.1,1.1,0.4,1.4c0.2,0.1,0.3,0.1,0.5,0.1c0.4,0,0.7-0.2,0.9-0.5L50.8,7c4.2,2.6,7.7,6.2,10.3,10.4l-3.6,2.1
			c-0.5,0.3-0.7,0.9-0.4,1.4c0.2,0.3,0.5,0.5,0.9,0.5c0.2,0,0.4,0,0.5-0.1l3.6-2.1c2.3,4.3,3.6,9.1,3.8,14.2H50.8c-0.6,0-1,0.5-1,1
			v5.6h-1c-0.6,0-1,0.5-1,1v5.6h-1c-0.6,0-1,0.5-1,1v6.7c0,0.6,0.5,1,1,1h2.1v4.6h-1c-0.6,0-1,0.5-1,1V68c0,0.6,0.5,1,1,1h16.1
			c0.6,0,1-0.5,1-1v-5.6h1c0.6,0,1-0.5,1-1v-6.7c0-0.6-0.5-1-1-1h-2.1v-4.6h1c0.6,0,1-0.5,1-1v-5.6h1c0.6,0,1-0.5,1-1L68,34.5
			C68,34.5,68,34.5,68,34.5z M2.1,60.2v-4.6h1h13.1v4.6h-12H2.1z M19.2,62.3v4.6H5.2v-4.6h12H19.2z M18.2,48.9v4.6h-1H4.1v-4.6h13.1
			H18.2z M16.2,42.2v4.6H3.1h-1v-4.6H16.2z M47.7,53.5v-4.6h1h13.1v4.6h-12H47.7z M62.8,66.9H48.8v-4.6h1h13.1V66.9z M64.9,55.6v4.6
			h-1H50.8v-4.6h12H64.9z M63.9,46.8h-1H49.8v-4.6h1h13.1V46.8z M65.9,40.1h-1H51.9v-4.6h14.1V40.1z M34,17.5c-0.6,0-1,0.5-1,1v11.7
			c-1.9,0.5-3.3,2.2-3.3,4.3c0,2.5,2,4.4,4.4,4.4c2.4,0,4.4-2,4.4-4.4c0-0.2,0-0.5-0.1-0.7L53,27.5c0.5-0.2,0.8-0.8,0.5-1.4
			c-0.2-0.5-0.8-0.8-1.4-0.6l-14.6,6.3C36.9,31,36,30.4,35,30.2V18.5C35,17.9,34.6,17.5,34,17.5z M36.3,34.5c0,1.3-1,2.4-2.3,2.4
			c-1.3,0-2.3-1.1-2.3-2.4c0-1.3,1-2.4,2.3-2.4C35.3,32.1,36.3,33.2,36.3,34.5z"/>
	</g>
</g>
</svg>
