<?xml version="1.0" encoding="utf-8"?>
<!-- Generator: Adobe Illustrator 24.0.1, SVG Export Plug-In . SVG Version: 6.00 Build 0)  -->
<svg version="1.1" id="График_1_" xmlns="http://www.w3.org/2000/svg" xmlns:xlink="http://www.w3.org/1999/xlink" x="0px"
	 y="0px" viewBox="0 0 67 68" style="enable-background:new 0 0 67 68;" xml:space="preserve">
<style type="text/css">
	.st0{fill:#FFFFFF;}
</style>
<g id="График">
	<g>
		<path class="st0" d="M1,58.6c-0.6,0-1,0.5-1,1V67c0,0.6,0.5,1,1,1c0.6,0,1-0.5,1-1v-7.3C2,59.1,1.6,58.6,1,58.6z M10.3,50.4
			c-0.6,0-1,0.5-1,1V67c0,0.6,0.5,1,1,1c0.6,0,1-0.5,1-1V51.4C11.3,50.9,10.8,50.4,10.3,50.4z M19.6,42.2c-0.6,0-1,0.5-1,1V67
			c0,0.6,0.5,1,1,1c0.6,0,1-0.5,1-1V43.2C20.6,42.6,20.1,42.2,19.6,42.2z M28.8,36c-0.6,0-1,0.5-1,1v30c0,0.6,0.5,1,1,1
			c0.6,0,1-0.5,1-1V37C29.8,36.4,29.4,36,28.8,36z M38.1,36c-0.6,0-1,0.5-1,1v30c0,0.6,0.5,1,1,1c0.6,0,1-0.5,1-1V37
			C39.1,36.4,38.7,36,38.1,36z M46.4,37v8.3c0,0.6,0.5,1,1,1c0.6,0,1-0.5,1-1V37c0-0.6-0.5-1-1-1C46.8,36,46.4,36.4,46.4,37z
			 M55.6,27.7v14.5c0,0.6,0.5,1,1,1c0.6,0,1-0.5,1-1V27.7c0-0.6-0.5-1-1-1C56.1,26.7,55.6,27.2,55.6,27.7z M64.9,27.7v16.6
			c0,0.6,0.5,1,1,1c0.6,0,1-0.5,1-1V27.7c0-0.6-0.5-1-1-1C65.4,26.7,64.9,27.2,64.9,27.7z M60.1,14.9l5.1,5.1
			c0.3,0.3,0.7,0.4,1.1,0.2c0.4-0.2,0.6-0.5,0.6-1V1c0-0.6-0.5-1-1-1h-18c-0.4,0-0.8,0.3-0.9,0.6c-0.2,0.4-0.1,0.8,0.2,1.1l5.1,5.1
			L40.5,18.8H21c-1.5,0-2.9,0.6-3.9,1.7L0.3,37.5C0.1,37.7,0,38,0,38.3v13.1c0,0.4,0.2,0.8,0.6,1c0.1,0.1,0.3,0.1,0.4,0.1
			c0.3,0,0.5-0.1,0.7-0.3l21.6-22h19.5c1.5,0,2.9-0.6,3.9-1.7L60.1,14.9z M42.8,28.1H22.9c-0.3,0-0.5,0.1-0.7,0.3L2,48.9V38.7
			l16.5-16.8c0.7-0.7,1.6-1.1,2.5-1.1H41c0.3,0,0.5-0.1,0.7-0.3L54.4,7.6c0.2-0.2,0.3-0.5,0.3-0.7c0-0.3-0.1-0.5-0.3-0.7l-4-4.1
			h14.5v14.8l-4-4.1c-0.4-0.4-1-0.4-1.4,0L45.4,27C44.7,27.7,43.8,28.1,42.8,28.1z M56.8,58.2c-1.5,0-2.3-0.7-2.3-2c0-1.1,1-2,2.3-2
			c1,0,1.8,0.5,2.1,1.3c0.2,0.5,0.8,0.8,1.3,0.5c0.5-0.2,0.8-0.8,0.5-1.3c-0.5-1.3-1.6-2.2-3-2.5v-0.8c0-0.6-0.5-1-1-1
			c-0.6,0-1,0.5-1,1v0.8c-1.9,0.4-3.3,2-3.3,3.9c0,2,1.1,4.1,4.3,4.1c1.5,0,2.3,0.7,2.3,2c0,1.1-1,2-2.3,2c-1,0-1.8-0.5-2.1-1.3
			c-0.2-0.5-0.8-0.8-1.3-0.6c-0.5,0.2-0.8,0.8-0.5,1.3c0.5,1.3,1.6,2.2,3,2.5V67c0,0.6,0.5,1,1,1c0.6,0,1-0.5,1-1v-0.8
			c1.9-0.4,3.3-2,3.3-3.9C61.1,59.8,59.4,58.2,56.8,58.2z M66.8,51.3c-2.4-3.2-6.1-5-10-5c-7,0-12.7,5.8-12.7,12.9
			c0,3.1,1.1,6.1,3.1,8.4c0.2,0.2,0.5,0.4,0.8,0.4c0.2,0,0.5-0.1,0.7-0.3c0.4-0.4,0.5-1,0.1-1.5c-1.7-2-2.6-4.5-2.6-7.1
			c0-6,4.8-10.8,10.6-10.8c3.3,0,6.4,1.5,8.4,4.2c0.3,0.4,1,0.5,1.4,0.2C67,52.4,67.1,51.8,66.8,51.3z"/>
	</g>
</g>
</svg>
