<?xml version="1.0" encoding="utf-8"?>
<!-- Generator: Adobe Illustrator 24.0.1, SVG Export Plug-In . SVG Version: 6.00 Build 0)  -->
<svg version="1.1" id="Слой_1" xmlns="http://www.w3.org/2000/svg" xmlns:xlink="http://www.w3.org/1999/xlink" x="0px" y="0px"
	 viewBox="0 0 82 82" style="enable-background:new 0 0 82 82;" xml:space="preserve">
<g>
	<defs>
		<path id="SVGID_1_" d="M51.3,50.9C38.9,60.3,13.7,52.8,0,47.5v-6c0.5,0.1,1,0.3,1.5,0.4c8,2.1,15.1,3.2,21.2,3.2
			c7.6,0,13.7-1.7,18.2-5.1C47.5,35,66.1,11.6,75,0h0.8C79.2,0,82,2.8,82,6.1v9C72.5,27.3,57,46.6,51.3,50.9z M39,37.6
			c-9.2,7-25.6,4.6-39,0.7v-6.6C4.5,32.6,8.6,33,12.3,33c7.6,0,13.7-1.7,18.2-5.1C35.3,24.3,46.1,11.3,55.1,0h16
			C61.8,11.9,45,33.1,39,37.6z M75.9,82H63.2c4.4-4,11.8-12.7,18.8-21.4v15.3C82,79.2,79.2,82,75.9,82z M6.1,82
			c-2.9,0-5.3-2-5.9-4.6C2.7,78.5,6.9,80.2,12,82H6.1z M28.7,25.5c-7,5.3-18,5.2-28.7,3.2v-6c7.4-0.1,13.4-1.8,17.7-5.1
			C21,15,27.3,7.9,33.9,0h17.3C42.6,10.7,32.9,22.3,28.7,25.5z M57.2,64.6c-14.5,11-46.5-1.3-57.2-5.8v-8c4,1.5,8.7,3.1,13.8,4.5
			c8,2.1,15.1,3.2,21.2,3.2c7.6,0,13.7-1.7,18.2-5.1c5.5-4.2,19.2-21.1,28.9-33.3v16.1C72.9,47.7,61.8,61.1,57.2,64.6z M15.9,15.1
			c-4.2,3.1-9.7,4.4-15.9,4.4V6.1C0,2.8,2.8,0,6.1,0h23.7C24.1,6.9,18.7,12.9,15.9,15.1z M59.7,80.9c-0.5,0.4-1.1,0.8-1.7,1.1H22.3
			C11.8,79.1,2.9,75.2,0,73.9V62.1c4.5,1.9,11.7,4.7,19.7,6.8c8,2.1,15.1,3.2,21.2,3.2c7.6,0,13.7-1.7,18.2-5.1
			c4.5-3.4,14.3-15.1,23-25.9v14.6L59.7,80.9z"/>
	</defs>
	<use xlink:href="#SVGID_1_"  style="overflow:visible;fill:#FE504F;"/>
	<clipPath id="SVGID_2_">
		<use xlink:href="#SVGID_1_"  style="overflow:visible;"/>
	</clipPath>
</g>
</svg>
