<svg id="layer1" xmlns="http://www.w3.org/2000/svg" width="90.448" height="90.585" viewBox="0 0 90.448 90.585">
  <path id="path821" d="M112.717,242.833a45.49,45.49,0,0,1-32.705-62.881,44.211,44.211,0,0,1,8.956-13.138l3.428-3.526.242,20.635c.231,19.752.284,20.747,1.218,23.236a29.363,29.363,0,0,0,7.323,11.585,28.582,28.582,0,0,0,33.093,5.608,29.253,29.253,0,0,0,16.263-27.673c-.514-7.6-3.07-13.176-8.59-18.729a28.519,28.519,0,0,0-14.429-8.061c-5.439-1.138-5.178-1.3-5.178,3.3v3.974l2.982.549A21.067,21.067,0,0,1,142.1,202.623a20.417,20.417,0,0,1-5.236,9.856,20.927,20.927,0,0,1-34.238-5.317,24.478,24.478,0,0,1-1.19-3.3c-1.7-7.417-.614-23.03-.614-23.03L100.686,158l1.348-.7a8.734,8.734,0,0,1,1.58-.7c.128,0,.29,10.485.36,23.3,0,0-1.637,16.8.386,23.237.292.929.846,2.518.846,2.518a18.184,18.184,0,0,0,8.306,8.538,15.561,15.561,0,0,0,8.36,1.928,18.49,18.49,0,0,0,16.24-11.216,17.834,17.834,0,0,0-11.691-23.724c-4.168-1.224-4.083-1.292-4.083,3.241v3.959l2,.535c7.212,1.929,9.412,11.6,3.751,16.562a9.3,9.3,0,0,1-6.956,2.531,9.6,9.6,0,0,1-9.349-9.644c0-7.539-.163-21.1-.163-21.1l-.135-23.259,1.035-.257c.569-.141,2.871-.491,5.115-.778,7.609-.971,18.867,1.519,26.43,5.846a46.418,46.418,0,0,1,21.361,27.748c1.117,4.029,1.242,5.2,1.242,11.682,0,6.453-.127,7.663-1.221,11.6-4.418,15.92-15.657,27.3-31.727,32.128-3.382,1.016-4.966,1.21-10.934,1.337a48.415,48.415,0,0,1-10.071-.491Z" transform="translate(-76.221 -152.769)" fill="#fff"/>
</svg>
