<svg id="cms" xmlns="http://www.w3.org/2000/svg" width="96.624" height="90.585" viewBox="0 0 96.624 90.585">
  <path id="Path_3004" data-name="Path 3004" d="M150.447,425.662h-9.284L139.275,420H105l-1.887,5.662H93.831a2.831,2.831,0,1,0,0,5.662h56.616a2.831,2.831,0,1,0,0-5.662Zm0,0" transform="translate(-73.827 -340.738)" fill="#fff"/>
  <path id="Path_3005" data-name="Path 3005" d="M393.831,90a2.831,2.831,0,1,0,2.831,2.831A2.832,2.832,0,0,0,393.831,90Zm0,0" transform="translate(-317.211 -73.015)" fill="#fff"/>
  <path id="Path_3006" data-name="Path 3006" d="M87.943,0H8.492A8.5,8.5,0,0,0,0,8.492V56.616H17.173V48.123A2.83,2.83,0,0,1,20,45.293h4.374a25.191,25.191,0,0,1,1.006-2.425l-3.094-3.1a2.83,2.83,0,0,1,0-4L30.3,27.763a2.83,2.83,0,0,1,4,0l3.1,3.1A25.324,25.324,0,0,1,39.82,29.85V25.477a2.83,2.83,0,0,1,2.831-2.831H53.974A2.83,2.83,0,0,1,56.8,25.477v4.374a25.4,25.4,0,0,1,2.425,1.008l3.1-3.1a2.831,2.831,0,0,1,4,0l8.006,8.006a2.83,2.83,0,0,1,0,4l-3.094,3.1a25.268,25.268,0,0,1,1.006,2.425H76.62a2.83,2.83,0,0,1,2.831,2.831v8.492H96.624V8.492A8.666,8.666,0,0,0,87.943,0ZM76.62,28.308a8.492,8.492,0,1,1,8.492-8.492A8.5,8.5,0,0,1,76.62,28.308Zm0,0" transform="translate(0 0)" fill="#fff"/>
  <path id="Path_3007" data-name="Path 3007" d="M211,248.492a8.439,8.439,0,0,0,.549,2.831h15.886A8.466,8.466,0,1,0,211,248.492Zm0,0" transform="translate(-171.18 -194.707)" fill="#fff"/>
  <path id="Path_3008" data-name="Path 3008" d="M127.374,170.523a2.832,2.832,0,0,1-2.742,2.123H121v5.662h11.7a14.16,14.16,0,1,1,27.563,0h11.7v-5.662h-3.632a2.832,2.832,0,0,1-2.742-2.123,19.458,19.458,0,0,0-2.1-5.045,2.832,2.832,0,0,1,.436-3.439l2.574-2.576-4-4-2.576,2.576a2.819,2.819,0,0,1-3.442.434,19.456,19.456,0,0,0-5.042-2.1,2.832,2.832,0,0,1-2.123-2.742V150h-5.662v3.632a2.832,2.832,0,0,1-2.123,2.742,19.457,19.457,0,0,0-5.042,2.1,2.82,2.82,0,0,1-3.442-.434l-2.576-2.576-4,4,2.574,2.576a2.832,2.832,0,0,1,.436,3.439,19.458,19.458,0,0,0-2.1,5.045Zm0,0" transform="translate(-98.165 -121.692)" fill="#fff"/>
  <path id="Path_3009" data-name="Path 3009" d="M0,332.831a8.5,8.5,0,0,0,8.492,8.492H87.943a8.665,8.665,0,0,0,8.681-8.492V330H0Zm0,0" transform="translate(0 -267.723)" fill="#fff"/>
</svg>
