<svg id="computer" xmlns="http://www.w3.org/2000/svg" width="90.585" height="90.585" viewBox="0 0 90.585 90.585">
  <path id="Path_3043" data-name="Path 3043" d="M210.072,330.938a29.375,29.375,0,0,0-29.3,29.38,2.654,2.654,0,0,0,2.654,2.654h22.91l6.185-18.761a2.654,2.654,0,1,1,5.04,1.662l-5.637,17.1h24.8a2.654,2.654,0,0,0,2.654-2.654,29.374,29.374,0,0,0-29.3-29.38Zm0,0" transform="translate(-148.788 -272.387)" fill="#fff"/>
  <path id="Path_3044" data-name="Path 3044" d="M91,211h53.254v5.308H91Zm0,0" transform="translate(-74.9 -173.669)" fill="#fff"/>
  <path id="Path_3045" data-name="Path 3045" d="M13.446,193.462a2.654,2.654,0,1,1,0-5.308H32.023a2.653,2.653,0,0,1,2.572,2,34.866,34.866,0,0,1,8.013-7.132H13.446a2.654,2.654,0,1,1,0-5.308H42.639a2.657,2.657,0,0,1,2.337,3.912,34.484,34.484,0,0,1,40.3,5.614V151H0v48.831a9.742,9.742,0,0,0,9.731,9.731H26.776a34.523,34.523,0,0,1,5.409-16.106c-.122.008.907.006-18.738.006Zm-2.654-34.5a2.655,2.655,0,0,1,2.654-2.654H72.008a2.655,2.655,0,0,1,2.654,2.654v10.615a2.655,2.655,0,0,1-2.654,2.654H13.446a2.655,2.655,0,0,1-2.654-2.654Zm0,0" transform="translate(0 -124.284)" fill="#fff"/>
  <path id="Path_3046" data-name="Path 3046" d="M85.277,9.731A9.742,9.742,0,0,0,75.546,0H9.731A9.742,9.742,0,0,0,0,9.731V21.408H85.277ZM50.6,16.1a2.654,2.654,0,1,1,2.654-2.654A2.655,2.655,0,0,1,50.6,16.1Zm10.615,0a2.654,2.654,0,1,1,2.654-2.654A2.655,2.655,0,0,1,61.216,16.1Zm10.615,0a2.654,2.654,0,1,1,2.654-2.654A2.655,2.655,0,0,1,71.831,16.1Zm0,0" fill="#fff"/>
</svg>
