<svg id="content" xmlns="http://www.w3.org/2000/svg" width="99.093" height="90.633" viewBox="0 0 99.093 90.633">
  <path id="Path_3028" data-name="Path 3028" d="M413.949,98.465h18.977v50.8H413.949Zm0,0" transform="translate(-333.833 -79.505)" fill="#fff"/>
  <path id="Path_3029" data-name="Path 3029" d="M430.7,3.038a2.9,2.9,0,0,0-5.177,0l-5.779,11.381h16.734Zm0,0" transform="translate(-338.506 -1.266)" fill="#fff"/>
  <path id="Path_3030" data-name="Path 3030" d="M413.949,398.308a7.747,7.747,0,0,0,7.766,7.71h3.445a7.747,7.747,0,0,0,7.766-7.71v-7.355H413.949Zm0,0" transform="translate(-333.833 -315.385)" fill="#fff"/>
  <path id="Path_3031" data-name="Path 3031" d="M61.65.5H12.463A12.478,12.478,0,0,0,0,12.964V78.67A12.478,12.478,0,0,0,12.463,91.133H61.65A12.478,12.478,0,0,0,74.113,78.67V12.964A12.478,12.478,0,0,0,61.65.5ZM32.181,72.043H14.855a2.9,2.9,0,1,1,0-5.806H32.181a2.9,2.9,0,0,1,0,5.806Zm0-11.807H14.855a2.9,2.9,0,1,1,0-5.806H32.181a2.9,2.9,0,1,1,0,5.806Zm0-11.613H14.855a2.9,2.9,0,1,1,0-5.806H32.181a2.9,2.9,0,1,1,0,5.806Zm0-11.613H14.855a2.9,2.9,0,1,1,0-5.806H32.181a2.9,2.9,0,0,1,0,5.806Zm0-11.613H14.855a2.9,2.9,0,1,1,0-5.806H32.181a2.9,2.9,0,0,1,0,5.806Zm18.1,46.647H41.931a2.9,2.9,0,1,1,0-5.806h8.345a2.9,2.9,0,0,1,0,5.806Zm8.981-35.034H41.931a2.9,2.9,0,0,1,0-5.806H59.258a2.9,2.9,0,0,1,0,5.806Zm0-11.613H41.931a2.9,2.9,0,0,1,0-5.806H59.258a2.9,2.9,0,0,1,0,5.806Zm0,0" transform="translate(0 -0.5)" fill="#fff"/>
</svg>
