<svg id="global" xmlns="http://www.w3.org/2000/svg" width="90.767" height="90.585" viewBox="0 0 90.767 90.585">
  <path id="Path_3010" data-name="Path 3010" d="M231.816,364.827c6.941-.986,13.026-8.23,16.855-18.929a82.391,82.391,0,0,0-16.855-1.984Zm0,0" transform="translate(-184.81 -274.242)" fill="#fff"/>
  <path id="Path_3011" data-name="Path 3011" d="M280.917,374.047c.41-.119.819-.238,1.225-.37.342-.11.68-.229,1.017-.347.4-.138.8-.28,1.193-.43.337-.128.672-.265,1.007-.4.387-.162.772-.324,1.154-.486.333-.147.665-.3,1-.455.375-.177.748-.356,1.118-.543q.487-.248.973-.508.545-.292,1.084-.6c.325-.184.638-.368.954-.558q.528-.324,1.049-.649c.311-.2.622-.4.928-.607.342-.23.68-.47,1.015-.71.3-.216.6-.432.9-.649.325-.25.657-.509.983-.769.289-.23.577-.459.862-.7.324-.269.634-.548.949-.827.276-.245.553-.487.822-.738.31-.289.611-.589.913-.886.261-.258.526-.512.782-.777.048-.049.093-.1.142-.153a54.521,54.521,0,0,0-11.115-4.277A40.254,40.254,0,0,1,279.5,374.448c.132-.034.263-.062.394-.1.347-.1.688-.2,1.027-.3Zm0,0" transform="translate(-222.822 -285.164)" fill="#fff"/>
  <path id="Path_3012" data-name="Path 3012" d="M358.284,231.684h-19.45a84.127,84.127,0,0,1-3.275,22.443,56.414,56.414,0,0,1,12.311,4.9,45.321,45.321,0,0,0,10.414-27.342Zm0,0" transform="translate(-267.517 -184.769)" fill="#fff"/>
  <path id="Path_3013" data-name="Path 3013" d="M231.816,130.586h21.067a81.151,81.151,0,0,0-3.194-21.644,85.445,85.445,0,0,1-17.873,2.131Zm0,0" transform="translate(-184.81 -86.916)" fill="#fff"/>
  <path id="Path_3014" data-name="Path 3014" d="M231.816.316V21.23a82.445,82.445,0,0,0,16.855-1.984C244.842,8.547,238.757,1.3,231.816.316Zm0,0" transform="translate(-184.81 -0.316)" fill="#fff"/>
  <path id="Path_3015" data-name="Path 3015" d="M231.816,251.2a85.5,85.5,0,0,1,17.873,2.132,81.156,81.156,0,0,0,3.194-21.645H231.816Zm0,0" transform="translate(-184.81 -184.769)" fill="#fff"/>
  <path id="Path_3016" data-name="Path 3016" d="M347.869,80.844a56.418,56.418,0,0,1-12.311,4.9,84.125,84.125,0,0,1,3.275,22.443h19.45a45.335,45.335,0,0,0-10.414-27.342Zm0,0" transform="translate(-267.517 -64.515)" fill="#fff"/>
  <path id="Path_3017" data-name="Path 3017" d="M300.953,19.35c-.048-.048-.093-.1-.139-.15-.257-.265-.523-.52-.784-.777-.3-.3-.6-.6-.912-.886-.268-.25-.547-.487-.822-.737-.314-.279-.629-.56-.952-.829-.28-.237-.568-.463-.853-.691-.325-.263-.657-.524-.992-.775-.293-.221-.59-.435-.889-.649-.339-.244-.68-.487-1.025-.719-.3-.2-.611-.4-.92-.6-.351-.226-.7-.447-1.058-.661-.313-.188-.629-.373-.946-.553q-.544-.311-1.093-.605c-.325-.162-.649-.339-.973-.5-.373-.189-.749-.37-1.135-.548q-.487-.232-.989-.451c-.384-.17-.772-.324-1.16-.486-.334-.136-.667-.271-1-.4-.394-.15-.793-.291-1.192-.429-.337-.119-.675-.237-1.017-.348-.406-.131-.811-.251-1.228-.371-.337-.1-.676-.2-1.018-.29-.131-.036-.264-.063-.4-.1a40.257,40.257,0,0,1,10.367,16.835,54.44,54.44,0,0,0,11.128-4.281Zm0,0" transform="translate(-222.791 -5.483)" fill="#fff"/>
  <path id="Path_3018" data-name="Path 3018" d="M0,108.186H19.45a84.158,84.158,0,0,1,3.274-22.443,56.346,56.346,0,0,1-12.31-4.9A45.323,45.323,0,0,0,0,108.186Zm0,0" transform="translate(0 -64.515)" fill="#fff"/>
  <path id="Path_3019" data-name="Path 3019" d="M149.549,364.827V343.914a82.446,82.446,0,0,0-16.855,1.984c3.828,10.7,9.914,17.943,16.855,18.929Zm0,0" transform="translate(-105.788 -274.242)" fill="#fff"/>
  <path id="Path_3020" data-name="Path 3020" d="M132.988,231.684H111.921a81.124,81.124,0,0,0,3.194,21.645,85.389,85.389,0,0,1,17.873-2.132Zm0,0" transform="translate(-89.227 -184.769)" fill="#fff"/>
  <path id="Path_3021" data-name="Path 3021" d="M149.549.316c-6.941.986-13.027,8.23-16.855,18.929a82.334,82.334,0,0,0,16.855,1.984Zm0,0" transform="translate(-105.788 -0.316)" fill="#fff"/>
  <path id="Path_3022" data-name="Path 3022" d="M132.988,111.073a85.445,85.445,0,0,1-17.873-2.131,81.118,81.118,0,0,0-3.194,21.644h21.067Zm0,0" transform="translate(-89.227 -86.915)" fill="#fff"/>
  <path id="Path_3023" data-name="Path 3023" d="M83.669,6.789c-.131.034-.263.062-.394.1-.344.092-.683.194-1.025.293-.407.119-.811.238-1.22.368-.345.112-.684.23-1.023.349-.4.14-.794.28-1.187.429-.339.13-.673.265-1.009.4l-1.153.486c-.334.147-.665.3-1,.455-.375.177-.748.356-1.118.543q-.487.248-.973.508-.545.292-1.082.6-.487.272-.957.558c-.352.212-.7.432-1.048.649-.312.2-.622.4-.928.608-.342.23-.68.47-1.015.71-.3.216-.6.432-.9.65-.332.25-.649.509-.983.768-.288.23-.579.459-.861.7-.325.268-.633.545-.946.822-.277.247-.557.487-.828.743-.308.288-.608.586-.909.882-.261.258-.528.513-.784.779-.047.049-.092.1-.141.153a54.461,54.461,0,0,0,11.115,4.278A40.24,40.24,0,0,1,83.669,6.789Zm0,0" transform="translate(-49.581 -5.477)" fill="#fff"/>
  <path id="Path_3024" data-name="Path 3024" d="M63.141,362.768c.3.3.6.6.912.886.269.25.547.486.823.736.314.28.629.56.952.829.28.235.566.463.853.691.325.263.649.524.992.777.292.219.589.432.886.65.339.243.681.486,1.027.72.3.2.611.4.92.6.351.225.7.446,1.058.66q.469.283.946.554.544.311,1.093.6c.324.162.649.339.973.5.373.188.749.37,1.135.549q.487.229.989.451c.384.17.771.324,1.16.486.334.136.667.271,1,.4.394.151.793.292,1.192.43.337.118.675.237,1.017.347.406.131.811.252,1.228.371.337.1.676.2,1.017.291.131.036.265.063.4.1a40.264,40.264,0,0,1-10.367-16.836,54.465,54.465,0,0,0-11.115,4.28c.048.048.093.1.14.151.243.263.505.518.77.775Zm0,0" transform="translate(-49.612 -285.123)" fill="#fff"/>
  <path id="Path_3025" data-name="Path 3025" d="M10.414,259.025a56.427,56.427,0,0,1,12.31-4.9,84.156,84.156,0,0,1-3.274-22.443H0a45.33,45.33,0,0,0,10.414,27.342Zm0,0" transform="translate(0 -184.768)" fill="#fff"/>
</svg>
