<svg id="goal" xmlns="http://www.w3.org/2000/svg" width="90.585" height="90.585" viewBox="0 0 90.585 90.585">
  <g id="Group_1700" data-name="Group 1700">
    <path id="Path_3002" data-name="Path 3002" d="M90.585,11.646,77,13.587,78.939,0,68.6,10.335A43.912,43.912,0,1,0,80.25,21.981ZM43.92,79.6a32.94,32.94,0,1,1,20.2-58.961L56.261,28.5a21.959,21.959,0,1,0,5.823,5.823l7.856-7.856A32.94,32.94,0,0,1,43.92,79.6Zm-1.86-31.08a4.118,4.118,0,0,0,5.823,0l6.148-6.148a10.972,10.972,0,1,1-5.823-5.823L42.06,42.7A4.118,4.118,0,0,0,42.06,48.525Z" transform="translate(0)" fill="#fff"/>
  </g>
</svg>
