<svg id="paint-board-and-brush" xmlns="http://www.w3.org/2000/svg" width="111.632" height="90.585" viewBox="0 0 111.632 90.585">
  <path id="Path_3003" data-name="Path 3003" d="M109.377,43.593a1.55,1.55,0,0,0-2.7-.331c-1.959,2.747-4.53,3.662-7.508,4.723A28.067,28.067,0,0,0,91.6,51.651c-3.8,2.725-5.531,6.439-4.666,9.959l-.093.119A50.929,50.929,0,0,0,81.709,55.4,47.933,47.933,0,0,0,49.069,40.751c-.539-.019-1.086-.028-1.628-.028A47.347,47.347,0,0,0,11.579,57.472,47.131,47.131,0,0,0,.53,95.29c.173,1.124.389,2.259.643,3.376,3.358,14.782,11.936,26.027,23.534,30.851a22.278,22.278,0,0,0,8.57,1.792c7.025,0,13.16-3.757,16.834-10.308a22.3,22.3,0,0,0,2.677-7.662,18.5,18.5,0,0,0-.078-4.54,17.076,17.076,0,0,1-.066-4.416,5.918,5.918,0,0,1,6.214-5.311,9.584,9.584,0,0,1,2.91.468c-1.143,2.1-2.181,4.1-3.087,5.952a60.437,60.437,0,0,0-3.941,9.675c-.428,1.535-1.564,5.613,1.207,7.536a4.142,4.142,0,0,0,3.157.61c1.046-.194,4.23-.786,13.277-11.085,2.428-2.764,5.045-5.962,7.779-9.508,7.021-2.365,12.484-8.249,13.929-15.011a22.121,22.121,0,0,0,.448-5.378c2.629-4.062,4.934-7.853,7.254-11.927.044-.079.088-.162.132-.248a12.787,12.787,0,0,0,7.97-7.207C112.378,57.6,112.2,50.725,109.377,43.593ZM71.423,68.919a6.61,6.61,0,1,1,.853-4.988A6.582,6.582,0,0,1,71.423,68.919ZM80,80.9c3.342-4.925,6.877-9.82,10.234-14.174a18.125,18.125,0,0,0,1.812,1.429,13.929,13.929,0,0,0,3.4,1.745c-2.835,4.847-5.882,9.65-9.573,15.085A248.135,248.135,0,0,1,68.128,108.35a68.452,68.452,0,0,1-7.667,7.711,69.179,69.179,0,0,1,4.361-10.013A248.9,248.9,0,0,1,80,80.9Zm-58.683-.042a6.611,6.611,0,1,1,5.6-3.089A6.59,6.59,0,0,1,21.321,80.855Zm-6.93,14.558a6.61,6.61,0,1,1-.853,4.987A6.581,6.581,0,0,1,14.391,95.413ZM35.563,56.148a6.612,6.612,0,1,1-.852,4.988A6.582,6.582,0,0,1,35.563,56.148Z" transform="translate(0 -40.723)" fill="#fff"/>
</svg>
