<svg id="pantone" xmlns="http://www.w3.org/2000/svg" width="90.502" height="90.501" viewBox="0 0 90.502 90.501">
  <g id="Group_1709" data-name="Group 1709" transform="translate(36.202 54.757)">
    <g id="Group_1708" data-name="Group 1708">
      <path id="Path_3051" data-name="Path 3051" d="M253.308,309.78l-46.07,26.6V338a12.824,12.824,0,0,1-2.432,7.524h46.776A7.532,7.532,0,0,0,259.107,338V317.1A7.535,7.535,0,0,0,253.308,309.78Z" transform="translate(-204.807 -309.78)" fill="#fff"/>
    </g>
  </g>
  <g id="Group_1711" data-name="Group 1711" transform="translate(38.633 23.452)">
    <g id="Group_1710" data-name="Group 1710">
      <path id="Path_3052" data-name="Path 3052" d="M263.254,149.894l-7.764-13.456A7.5,7.5,0,0,0,246.8,133l-28.241,48.915v2.459l42.256-24.4a7.524,7.524,0,0,0,2.435-10.083Z" transform="translate(-218.563 -132.676)" fill="#fff"/>
    </g>
  </g>
  <g id="Group_1713" data-name="Group 1713" transform="translate(38.202 3.483)">
    <g id="Group_1712" data-name="Group 1712">
      <path id="Path_3053" data-name="Path 3053" d="M240.053,33.044a7.474,7.474,0,0,0-3.506-4.568l-13.442-7.761a7.489,7.489,0,0,0-6.986-.275,12.87,12.87,0,0,1,.432,3.307V78.157l22.75-39.4A7.474,7.474,0,0,0,240.053,33.044Z" transform="translate(-216.12 -19.706)" fill="#fff"/>
    </g>
  </g>
  <g id="Group_1715" data-name="Group 1715">
    <g id="Group_1714" data-name="Group 1714">
      <path id="Path_3054" data-name="Path 3054" d="M25.736,0H7.524A7.532,7.532,0,0,0,0,7.524V82.978A7.532,7.532,0,0,0,7.524,90.5H25.736a7.532,7.532,0,0,0,7.524-7.524V7.524A7.532,7.532,0,0,0,25.736,0ZM16.63,78.918a5.046,5.046,0,1,1,5.046-5.046A5.052,5.052,0,0,1,16.63,78.918Z" fill="#fff"/>
    </g>
  </g>
</svg>
