<svg xmlns="http://www.w3.org/2000/svg" width="90.475" height="90.476" viewBox="0 0 90.475 90.476">
  <path id="repairing-service" d="M90.192,40.215a2.946,2.946,0,0,0-2.909-2.228A9.988,9.988,0,0,1,80.447,20.6a2.514,2.514,0,0,0,.276-3.412,44.784,44.784,0,0,0-7.167-7.238,2.519,2.519,0,0,0-3.438.278,10.427,10.427,0,0,1-11.283,2.534,10.048,10.048,0,0,1-6.11-9.821A2.51,2.51,0,0,0,50.5.3,45.145,45.145,0,0,0,40.326.274a2.519,2.519,0,0,0-2.239,2.589,10.066,10.066,0,0,1-6.195,9.652,10.455,10.455,0,0,1-11.2-2.551,2.521,2.521,0,0,0-3.414-.286,44.971,44.971,0,0,0-7.318,7.236,2.517,2.517,0,0,0,.27,3.437,10.025,10.025,0,0,1,2.53,11.288,10.457,10.457,0,0,1-9.843,6.115A2.461,2.461,0,0,0,.3,39.975,45.348,45.348,0,0,0,.285,50.261c.143,1.277,1.67,2.226,2.967,2.226a9.923,9.923,0,0,1,9.309,6.2,10.065,10.065,0,0,1-2.53,11.187,2.512,2.512,0,0,0-.274,3.408,44.943,44.943,0,0,0,7.155,7.241,2.516,2.516,0,0,0,3.444-.273,10.411,10.411,0,0,1,11.277-2.536,10.034,10.034,0,0,1,6.122,9.818,2.511,2.511,0,0,0,2.219,2.643,45.044,45.044,0,0,0,10.178.028,2.517,2.517,0,0,0,2.238-2.591,10.055,10.055,0,0,1,6.191-9.647,10.441,10.441,0,0,1,11.2,2.548A2.526,2.526,0,0,0,73.2,80.8a45.03,45.03,0,0,0,7.318-7.236,2.513,2.513,0,0,0-.27-3.439,10.023,10.023,0,0,1-2.534-11.284,10.126,10.126,0,0,1,9.254-6.132l.56.015A2.518,2.518,0,0,0,90.173,50.5,45.15,45.15,0,0,0,90.192,40.215Zm-44.954,31.1A26.079,26.079,0,1,1,67.63,58.61L56.21,47.19A16,16,0,0,0,37.27,25.522a1.811,1.811,0,0,0-1.252,1.261,1.767,1.767,0,0,0,.5,1.729s5.638,5.681,7.524,7.567a1.17,1.17,0,0,1,.169.839l-.018.124a36.056,36.056,0,0,1-.859,5.52c-.041.04-.079.074-.121.116s-.083.085-.125.128a35.54,35.54,0,0,1-5.6.871v-.011l-.095.024a.821.821,0,0,1-.09,0,1.205,1.205,0,0,1-.867-.368c-1.963-1.963-7.38-7.342-7.38-7.342a1.841,1.841,0,0,0-1.317-.586,1.79,1.79,0,0,0-1.686,1.362A16,16,0,0,0,47.729,55.671L59.273,67.215A25.948,25.948,0,0,1,45.239,71.318Z" transform="translate(-0.002 0.001)" fill="#fff"/>
</svg>
