<svg id="search-engine-optimization" xmlns="http://www.w3.org/2000/svg" width="95.905" height="90.501" viewBox="0 0 95.905 90.501">
  <path id="Path_3056" data-name="Path 3056" d="M96.88,80.039a4.84,4.84,0,1,1-4.84-4.84A4.84,4.84,0,0,1,96.88,80.039Zm0,0" transform="translate(-67.568 -58.27)" fill="#fff"/>
  <path id="Path_3057" data-name="Path 3057" d="M53,307h9.906v9.906H53Zm0,0" transform="translate(-41.068 -237.886)" fill="#fff"/>
  <path id="Path_3058" data-name="Path 3058" d="M53,212h9.906v9.906H53Zm0,0" transform="translate(-41.068 -164.273)" fill="#fff"/>
  <path id="Path_3059" data-name="Path 3059" d="M88.7,0H7.2A7.2,7.2,0,0,0,0,7.2V83.3a7.2,7.2,0,0,0,7.2,7.2H88.7a7.2,7.2,0,0,0,7.2-7.2V7.2A7.2,7.2,0,0,0,88.7,0ZM25.439,80.821a1.806,1.806,0,0,1-1.8,1.8H10.131a1.806,1.806,0,0,1-1.8-1.8V67.313a1.806,1.806,0,0,1,1.8-1.8H23.638a1.806,1.806,0,0,1,1.8,1.8Zm0-21.387a1.806,1.806,0,0,1-1.8,1.8H10.131a1.806,1.806,0,0,1-1.8-1.8V45.926a1.806,1.806,0,0,1,1.8-1.8H23.638a1.806,1.806,0,0,1,1.8,1.8Zm52.68,20.937H31.293a1.8,1.8,0,0,1,0-3.6H78.119a1.8,1.8,0,0,1,0,3.6ZM29.492,69.565a1.806,1.806,0,0,1,1.8-1.8H57.858a1.8,1.8,0,0,1,0,3.6H31.293A1.806,1.806,0,0,1,29.492,69.565ZM78.119,58.984H31.293a1.8,1.8,0,1,1,0-3.6H78.119a1.8,1.8,0,1,1,0,3.6ZM29.492,48.177a1.806,1.806,0,0,1,1.8-1.8H57.858a1.8,1.8,0,1,1,0,3.6H31.293A1.806,1.806,0,0,1,29.492,48.177ZM87.575,36.246a1.806,1.806,0,0,1-1.8,1.8H10.131a1.806,1.806,0,0,1-1.8-1.8V9.23a1.806,1.806,0,0,1,1.8-1.8H85.774a1.806,1.806,0,0,1,1.8,1.8Zm0,0" transform="translate(0 0)" fill="#fff"/>
  <path id="Path_3060" data-name="Path 3060" d="M53,72.413h72.041V49H53ZM65.539,51.3a8.446,8.446,0,0,1,8.442,8.442,8.3,8.3,0,0,1-1.351,4.547L75.4,67.055a1.807,1.807,0,0,1,0,2.544,1.766,1.766,0,0,1-1.283.518,1.864,1.864,0,0,1-1.283-.518L70.065,66.83a8.3,8.3,0,0,1-4.547,1.351A8.442,8.442,0,1,1,65.539,51.3Zm0,0" transform="translate(-41.068 -37.969)" fill="#fff"/>
</svg>
