<svg xmlns="http://www.w3.org/2000/svg" width="88.65" height="90.585" viewBox="0 0 88.65 90.585">
  <path id="shopping-cart" d="M12.768,62.086A12.676,12.676,0,0,0,25.356,74.749a8.345,8.345,0,1,0,7.351,0H64.928a8.345,8.345,0,1,0,7.355,0H79.16a3.068,3.068,0,0,0,0-6.135H25.429A6.536,6.536,0,0,1,18.9,62.086V57.1a12.587,12.587,0,0,0,6.527,1.816H68.606A16.491,16.491,0,0,0,83.785,47.464L91.7,19.744a3.067,3.067,0,0,0-2.949-3.91H18.9v-3.17A12.678,12.678,0,0,0,6.24,0a3.068,3.068,0,0,0,0,6.135,6.536,6.536,0,0,1,6.528,6.53Z" transform="translate(-3.173)" fill="#fff"/>
</svg>
