<svg id="statistics" xmlns="http://www.w3.org/2000/svg" width="90.371" height="90.371" viewBox="0 0 90.371 90.371">
  <path id="Path_3049" data-name="Path 3049" d="M38.943,42.362a7.9,7.9,0,0,0,5.5-2.233l7.837,3.918a7.779,7.779,0,0,0-.1.963,7.943,7.943,0,0,0,15.886,0,7.846,7.846,0,0,0-.8-3.4L77.9,30.975a7.846,7.846,0,0,0,3.4.8,7.952,7.952,0,0,0,7.943-7.943,7.824,7.824,0,0,0-.4-2.352l9.238-6.927a7.937,7.937,0,1,0-3.546-6.607,7.824,7.824,0,0,0,.4,2.352L85.7,17.222A7.908,7.908,0,0,0,74.158,27.231L63.526,37.863a7.8,7.8,0,0,0-8.9,1.437l-7.837-3.918a7.778,7.778,0,0,0,.1-.963,7.943,7.943,0,1,0-7.943,7.943Zm0,0" transform="translate(-25.528 0)" fill="#fff"/>
  <path id="Path_3050" data-name="Path 3050" d="M87.724,208.6H84.9V152.648A2.647,2.647,0,0,0,82.252,150H71.662a2.647,2.647,0,0,0-2.648,2.648V208.6h-5.3V168.533a2.647,2.647,0,0,0-2.648-2.648H50.481a2.647,2.647,0,0,0-2.648,2.648V208.6h-5.3V189.714a2.647,2.647,0,0,0-2.648-2.648H29.3a2.647,2.647,0,0,0-2.648,2.648V208.6h-5.3V179.124a2.647,2.647,0,0,0-2.648-2.648H8.119a2.647,2.647,0,0,0-2.648,2.648V208.6H2.648a2.648,2.648,0,1,0,0,5.3H87.724a2.648,2.648,0,1,0,0-5.3Zm0,0" transform="translate(0 -123.524)" fill="#fff"/>
</svg>
