<svg id="tablet-phone-and-browser" xmlns="http://www.w3.org/2000/svg" width="89.099" height="90.455" viewBox="0 0 89.099 90.455">
  <path id="Path_3035" data-name="Path 3035" d="M47.1,187.107v-9.365H7.877v-64.49a3.107,3.107,0,0,1,3.1-3.1h45.8a3.11,3.11,0,0,1,3.1,3.1v14.391h7.873V113.252a10.987,10.987,0,0,0-10.977-10.977h-45.8A10.985,10.985,0,0,0,0,113.252V181.7a10.985,10.985,0,0,0,10.977,10.978H48.724A10.114,10.114,0,0,1,47.1,187.107Zm-13.213,2.662a4.545,4.545,0,0,1-4.4-4.4,4.4,4.4,0,0,1,8.791,0,4.539,4.539,0,0,1-4.392,4.4Z" transform="translate(0 -102.275)" fill="#fff"/>
  <path id="Path_3036" data-name="Path 3036" d="M245.5,226.9H219.672a5.634,5.634,0,0,0-5.627,5.627v48.917a5.633,5.633,0,0,0,5.627,5.623H245.5a5.633,5.633,0,0,0,5.627-5.623V232.529A5.633,5.633,0,0,0,245.5,226.9Zm-25.542,5.91h25.259v43.32H219.955Zm9.814,48.486a2.815,2.815,0,1,1,2.809,2.817A2.809,2.809,0,0,1,229.769,281.3Z" transform="translate(-162.024 -196.613)" fill="#fff"/>
</svg>
